%TF.GenerationSoftware,KiCad,Pcbnew,9.0.9*%
%TF.CreationDate,2026-05-11T11:50:40-06:00*%
%TF.ProjectId,SparkFun_Qwiic_Current_Sensor_ADE7953,53706172-6b46-4756-9e5f-51776969635f,v10*%
%TF.SameCoordinates,Original*%
%TF.FileFunction,Soldermask,Top*%
%TF.FilePolarity,Negative*%
%FSLAX46Y46*%
G04 Gerber Fmt 4.6, Leading zero omitted, Abs format (unit mm)*
G04 Created by KiCad (PCBNEW 9.0.9) date 2026-05-11 11:50:40*
%MOMM*%
%LPD*%
G01*
G04 APERTURE LIST*
G04 Aperture macros list*
%AMRoundRect*
0 Rectangle with rounded corners*
0 $1 Rounding radius*
0 $2 $3 $4 $5 $6 $7 $8 $9 X,Y pos of 4 corners*
0 Add a 4 corners polygon primitive as box body*
4,1,4,$2,$3,$4,$5,$6,$7,$8,$9,$2,$3,0*
0 Add four circle primitives for the rounded corners*
1,1,$1+$1,$2,$3*
1,1,$1+$1,$4,$5*
1,1,$1+$1,$6,$7*
1,1,$1+$1,$8,$9*
0 Add four rect primitives between the rounded corners*
20,1,$1+$1,$2,$3,$4,$5,0*
20,1,$1+$1,$4,$5,$6,$7,0*
20,1,$1+$1,$6,$7,$8,$9,0*
20,1,$1+$1,$8,$9,$2,$3,0*%
G04 Aperture macros list end*
%ADD10RoundRect,0.050000X-0.500000X0.150000X-0.500000X-0.150000X0.500000X-0.150000X0.500000X0.150000X0*%
%ADD11RoundRect,0.050000X0.150000X0.500000X-0.150000X0.500000X-0.150000X-0.500000X0.150000X-0.500000X0*%
%ADD12RoundRect,0.050000X1.620000X1.620000X-1.620000X1.620000X-1.620000X-1.620000X1.620000X-1.620000X0*%
%ADD13RoundRect,0.243750X-0.243750X-0.281250X0.243750X-0.281250X0.243750X0.281250X-0.243750X0.281250X0*%
%ADD14C,0.600000*%
%ADD15C,1.979600*%
%ADD16RoundRect,0.165000X0.165000X0.195000X-0.165000X0.195000X-0.165000X-0.195000X0.165000X-0.195000X0*%
%ADD17C,1.300000*%
%ADD18RoundRect,0.050000X-1.250000X0.600000X-1.250000X-0.600000X1.250000X-0.600000X1.250000X0.600000X0*%
%ADD19RoundRect,0.050000X1.250000X-0.600000X1.250000X0.600000X-1.250000X0.600000X-1.250000X-0.600000X0*%
%ADD20RoundRect,0.160000X-0.210000X0.160000X-0.210000X-0.160000X0.210000X-0.160000X0.210000X0.160000X0*%
%ADD21RoundRect,0.050000X0.700000X0.600000X-0.700000X0.600000X-0.700000X-0.600000X0.700000X-0.600000X0*%
%ADD22RoundRect,0.050000X-0.700000X-0.600000X0.700000X-0.600000X0.700000X0.600000X-0.700000X0.600000X0*%
%ADD23RoundRect,0.165000X-0.165000X-0.195000X0.165000X-0.195000X0.165000X0.195000X-0.165000X0.195000X0*%
%ADD24RoundRect,0.050000X0.675000X-0.300000X0.675000X0.300000X-0.675000X0.300000X-0.675000X-0.300000X0*%
%ADD25RoundRect,0.050000X1.000000X-0.600000X1.000000X0.600000X-1.000000X0.600000X-1.000000X-0.600000X0*%
%ADD26C,3.200000*%
%ADD27RoundRect,0.165000X0.195000X-0.165000X0.195000X0.165000X-0.195000X0.165000X-0.195000X-0.165000X0*%
%ADD28RoundRect,0.050000X-0.675000X0.300000X-0.675000X-0.300000X0.675000X-0.300000X0.675000X0.300000X0*%
%ADD29RoundRect,0.050000X-1.000000X0.600000X-1.000000X-0.600000X1.000000X-0.600000X1.000000X0.600000X0*%
%ADD30RoundRect,0.225000X-0.225000X-0.300000X0.225000X-0.300000X0.225000X0.300000X-0.225000X0.300000X0*%
%ADD31RoundRect,0.225000X0.300000X-0.225000X0.300000X0.225000X-0.300000X0.225000X-0.300000X-0.225000X0*%
G04 APERTURE END LIST*
D10*
%TO.C,U1*%
X15100000Y7707500D03*
X15100000Y8207500D03*
X15100000Y8707500D03*
X15100000Y9207500D03*
X15100000Y9707500D03*
X15100000Y10207500D03*
X15100000Y10707500D03*
D11*
X14200000Y11607500D03*
X13700000Y11607500D03*
X13200000Y11607500D03*
X12700000Y11607500D03*
X12200000Y11607500D03*
X11700000Y11607500D03*
X11200000Y11607500D03*
D10*
X10300000Y10707500D03*
X10300000Y10207500D03*
X10300000Y9707500D03*
X10300000Y9207500D03*
X10300000Y8707500D03*
X10300000Y8207500D03*
X10300000Y7707500D03*
D11*
X11200000Y6807500D03*
X11700000Y6807500D03*
X12200000Y6807500D03*
X12700000Y6807500D03*
X13200000Y6807500D03*
X13700000Y6807500D03*
X14200000Y6807500D03*
D12*
X12700000Y9207500D03*
%TD*%
D13*
%TO.C,D1*%
X2070000Y7937500D03*
X3645000Y7937500D03*
%TD*%
D14*
%TO.C,FID3*%
X635000Y24765000D03*
%TD*%
D15*
%TO.C,J3*%
X6350000Y1270000D03*
X8890000Y1270000D03*
X11430000Y1270000D03*
X13970000Y1270000D03*
X16510000Y1270000D03*
X19050000Y1270000D03*
%TD*%
D16*
%TO.C,C3*%
X9052500Y11557000D03*
X8092500Y11557000D03*
%TD*%
D17*
%TO.C,J5*%
X12700000Y24130000D03*
X12700000Y17130000D03*
D18*
X15950000Y19530000D03*
D19*
X15950000Y22530000D03*
D18*
X9450000Y14430000D03*
X15950000Y15530000D03*
%TD*%
D20*
%TO.C,R7*%
X21272500Y19560000D03*
X21272500Y18540000D03*
%TD*%
D21*
%TO.C,Y1*%
X6520000Y6973200D03*
D22*
X8720000Y6973200D03*
X8720000Y8673200D03*
D21*
X6520000Y8673200D03*
%TD*%
D15*
%TO.C,J6*%
X6350000Y21590000D03*
X6350000Y24130000D03*
%TD*%
D23*
%TO.C,C4*%
X8092500Y10515600D03*
X9052500Y10515600D03*
%TD*%
D24*
%TO.C,J1*%
X20637500Y11200000D03*
X20637500Y12200000D03*
X20637500Y13200000D03*
X20637500Y14200000D03*
D25*
X24312500Y15500000D03*
X24312500Y9900000D03*
%TD*%
D26*
%TO.C,ST3*%
X22860000Y2540000D03*
%TD*%
D14*
%TO.C,FID4*%
X24765000Y635000D03*
%TD*%
D27*
%TO.C,C8*%
X6350000Y15395000D03*
X6350000Y16355000D03*
%TD*%
D23*
%TO.C,C5*%
X7457500Y5715000D03*
X8417500Y5715000D03*
%TD*%
D27*
%TO.C,C7*%
X19050000Y15395000D03*
X19050000Y16355000D03*
%TD*%
D28*
%TO.C,J2*%
X4762500Y14200000D03*
X4762500Y13200000D03*
X4762500Y12200000D03*
X4762500Y11200000D03*
D29*
X1087500Y9900000D03*
X1087500Y15500000D03*
%TD*%
D16*
%TO.C,C1*%
X11910000Y13017500D03*
X10950000Y13017500D03*
%TD*%
D20*
%TO.C,R5*%
X12700000Y4637500D03*
X12700000Y3617500D03*
%TD*%
D30*
%TO.C,R2*%
X5525000Y17780000D03*
X7175000Y17780000D03*
%TD*%
D20*
%TO.C,R10*%
X4127500Y19560000D03*
X4127500Y18540000D03*
%TD*%
D30*
%TO.C,R3*%
X2032500Y6350000D03*
X3682500Y6350000D03*
%TD*%
D20*
%TO.C,R4*%
X15240000Y4637500D03*
X15240000Y3617500D03*
%TD*%
D30*
%TO.C,R1*%
X18225000Y17780000D03*
X19875000Y17780000D03*
%TD*%
D27*
%TO.C,C9*%
X3175000Y18570000D03*
X3175000Y19530000D03*
%TD*%
%TO.C,C2*%
X16510000Y8410000D03*
X16510000Y9370000D03*
%TD*%
D26*
%TO.C,ST2*%
X22860000Y22860000D03*
%TD*%
D15*
%TO.C,J4*%
X19050000Y21590000D03*
X19050000Y24130000D03*
%TD*%
D20*
%TO.C,R11*%
X17780000Y4637500D03*
X17780000Y3617500D03*
%TD*%
D26*
%TO.C,ST1*%
X2540000Y22860000D03*
%TD*%
D27*
%TO.C,C6*%
X22225000Y18570000D03*
X22225000Y19530000D03*
%TD*%
D20*
%TO.C,R8*%
X18097500Y16385000D03*
X18097500Y15365000D03*
%TD*%
%TO.C,R9*%
X7302500Y16385000D03*
X7302500Y15365000D03*
%TD*%
D31*
%TO.C,R6*%
X17780000Y7747500D03*
X17780000Y9397500D03*
%TD*%
D26*
%TO.C,ST4*%
X2540000Y2540000D03*
%TD*%
M02*
