M48
; DRILL file {KiCad 9.0.9} date 2026-05-08T11:02:19-0600
; FORMAT={-:-/ absolute / metric / decimal}
; #@! TF.CreationDate,2026-05-08T11:02:19-06:00
; #@! TF.GenerationSoftware,Kicad,Pcbnew,9.0.9
; #@! TF.FileFunction,MixedPlating,1,2
FMAT,2
METRIC
; #@! TA.AperFunction,Plated,PTH,ViaDrill
T1C0.300
; #@! TA.AperFunction,Plated,PTH,ComponentDrill
T2C1.016
; #@! TA.AperFunction,NonPlated,NPTH,ComponentDrill
T3C1.200
; #@! TA.AperFunction,NonPlated,NPTH,ComponentDrill
T4C3.100
%
G90
G05
T1
X0.952Y7.938
X2.337Y19.634
X3.492Y14.287
X4.763Y6.032
X5.512Y16.538
X6.032Y11.112
X6.35Y13.335
X6.532Y12.2
X6.985Y20.193
X6.985Y11.112
X7.62Y9.83
X7.823Y11.557
X9.525Y12.383
X9.627Y15.469
X9.722Y17.659
X10.795Y6.985
X11.358Y6.02
X11.939Y2.972
X12.111Y6.02
X13.182Y6.02
X13.97Y6.02
X14.704Y6.005
X15.24Y2.222
X15.875Y12.192
X15.951Y16.662
X16.002Y21.082
X17.145Y9.881
X17.78Y2.222
X19.38Y12.2
X19.38Y11.2
X19.812Y16.513
X20.002Y4.127
X20.637Y9.207
X21.907Y14.2
X22.543Y13.335
X22.86Y14.287
X22.911Y19.583
X23.177Y12.7
T2
X6.35Y24.13
X6.35Y21.59
X6.35Y1.27
X8.89Y1.27
X11.43Y1.27
X13.97Y1.27
X16.51Y1.27
X19.05Y24.13
X19.05Y21.59
X19.05Y1.27
T3
X12.7Y24.13
X12.7Y17.13
T4
X2.54Y22.86
X2.54Y2.54
X22.86Y22.86
X22.86Y2.54
M30
