%TF.GenerationSoftware,KiCad,Pcbnew,9.0.9*%
%TF.CreationDate,2026-05-11T11:50:40-06:00*%
%TF.ProjectId,SparkFun_Qwiic_Current_Sensor_ADE7953,53706172-6b46-4756-9e5f-51776969635f,v10*%
%TF.SameCoordinates,Original*%
%TF.FileFunction,Soldermask,Bot*%
%TF.FilePolarity,Negative*%
%FSLAX46Y46*%
G04 Gerber Fmt 4.6, Leading zero omitted, Abs format (unit mm)*
G04 Created by KiCad (PCBNEW 9.0.9) date 2026-05-11 11:50:40*
%MOMM*%
%LPD*%
G01*
G04 APERTURE LIST*
G04 Aperture macros list*
%AMRoundRect*
0 Rectangle with rounded corners*
0 $1 Rounding radius*
0 $2 $3 $4 $5 $6 $7 $8 $9 X,Y pos of 4 corners*
0 Add a 4 corners polygon primitive as box body*
4,1,4,$2,$3,$4,$5,$6,$7,$8,$9,$2,$3,0*
0 Add four circle primitives for the rounded corners*
1,1,$1+$1,$2,$3*
1,1,$1+$1,$4,$5*
1,1,$1+$1,$6,$7*
1,1,$1+$1,$8,$9*
0 Add four rect primitives between the rounded corners*
20,1,$1+$1,$2,$3,$4,$5,0*
20,1,$1+$1,$4,$5,$6,$7,0*
20,1,$1+$1,$6,$7,$8,$9,0*
20,1,$1+$1,$8,$9,$2,$3,0*%
G04 Aperture macros list end*
%ADD10C,0.000000*%
%ADD11C,1.979600*%
%ADD12C,1.300000*%
%ADD13C,3.200000*%
%ADD14RoundRect,0.050000X0.635000X-0.330200X0.635000X0.330200X-0.635000X0.330200X-0.635000X-0.330200X0*%
%ADD15RoundRect,0.050000X-0.330200X-0.635000X0.330200X-0.635000X0.330200X0.635000X-0.330200X0.635000X0*%
%ADD16RoundRect,0.050000X-0.635000X0.330200X-0.635000X-0.330200X0.635000X-0.330200X0.635000X0.330200X0*%
%ADD17C,0.600000*%
G04 APERTURE END LIST*
D10*
%TO.C,JP4*%
G36*
X16115500Y7683500D02*
G01*
X15634500Y7683500D01*
X15634500Y8191500D01*
X16115500Y8191500D01*
X16115500Y7683500D01*
G37*
%TO.C,JP1*%
G36*
X6604000Y6744500D02*
G01*
X6096000Y6744500D01*
X6096000Y7225500D01*
X6604000Y7225500D01*
X6604000Y6744500D01*
G37*
%TO.C,JP2*%
G36*
X9107500Y6219000D02*
G01*
X8626500Y6219000D01*
X8626500Y6727000D01*
X9107500Y6727000D01*
X9107500Y6219000D01*
G37*
G36*
X9130500Y7251700D02*
G01*
X8649500Y7251700D01*
X8649500Y7759700D01*
X9130500Y7759700D01*
X9130500Y7251700D01*
G37*
%TO.C,JP3*%
G36*
X19608000Y7480300D02*
G01*
X19127000Y7480300D01*
X19127000Y7988300D01*
X19608000Y7988300D01*
X19608000Y7480300D01*
G37*
%TD*%
D11*
%TO.C,J3*%
X6350000Y1270000D03*
X8890000Y1270000D03*
X11430000Y1270000D03*
X13970000Y1270000D03*
X16510000Y1270000D03*
X19050000Y1270000D03*
%TD*%
D12*
%TO.C,J5*%
X12700000Y24130000D03*
X12700000Y17130000D03*
%TD*%
D11*
%TO.C,J6*%
X6350000Y21590000D03*
X6350000Y24130000D03*
%TD*%
D13*
%TO.C,ST3*%
X22860000Y2540000D03*
%TD*%
%TO.C,ST2*%
X22860000Y22860000D03*
%TD*%
D11*
%TO.C,J4*%
X19050000Y21590000D03*
X19050000Y24130000D03*
%TD*%
D13*
%TO.C,ST1*%
X2540000Y22860000D03*
%TD*%
%TO.C,ST4*%
X2540000Y2540000D03*
%TD*%
D14*
%TO.C,JP4*%
X15875000Y7416800D03*
X15875000Y8458200D03*
%TD*%
D15*
%TO.C,JP1*%
X5829300Y6985000D03*
X6870700Y6985000D03*
%TD*%
D16*
%TO.C,JP2*%
X8890000Y8026400D03*
X8890000Y6985000D03*
D14*
X8890000Y5943600D03*
%TD*%
D17*
%TO.C,FID2*%
X635000Y24765000D03*
%TD*%
%TO.C,FID1*%
X24765000Y635000D03*
%TD*%
D16*
%TO.C,JP3*%
X19367500Y8255000D03*
X19367500Y7213600D03*
D14*
X19367500Y6172200D03*
%TD*%
M02*
