%TF.GenerationSoftware,KiCad,Pcbnew,9.0.9*%
%TF.CreationDate,2026-05-11T11:50:40-06:00*%
%TF.ProjectId,SparkFun_Qwiic_Current_Sensor_ADE7953,53706172-6b46-4756-9e5f-51776969635f,v10*%
%TF.SameCoordinates,Original*%
%TF.FileFunction,Legend,Top*%
%TF.FilePolarity,Positive*%
%FSLAX46Y46*%
G04 Gerber Fmt 4.6, Leading zero omitted, Abs format (unit mm)*
G04 Created by KiCad (PCBNEW 9.0.9) date 2026-05-11 11:50:40*
%MOMM*%
%LPD*%
G01*
G04 APERTURE LIST*
%ADD10C,0.000000*%
%ADD11C,0.200000*%
%ADD12C,0.120000*%
%ADD13C,0.254000*%
%ADD14C,0.203200*%
G04 APERTURE END LIST*
D10*
G36*
X16192500Y18391725D02*
G01*
X20333882Y18391725D01*
X18097500Y16330000D01*
X16000000Y16330000D01*
X15888635Y16895786D01*
X17766365Y16895786D01*
X17766365Y18029214D01*
X15875000Y18029214D01*
X15888635Y18415000D01*
X16192500Y18391725D01*
G37*
G36*
X5080000Y25400000D02*
G01*
X7620000Y25400000D01*
X7620000Y20320000D01*
X5080000Y20320000D01*
X5080000Y25400000D01*
G37*
G36*
X9521825Y25400000D02*
G01*
X15878175Y25400000D01*
X15878175Y13652500D01*
X9521825Y13652500D01*
X9521825Y25400000D01*
G37*
G36*
X17773650Y25400000D02*
G01*
X20320000Y25400000D01*
X20320000Y20320000D01*
X17773650Y20320000D01*
X17773650Y25400000D01*
G37*
%TO.C,U1*%
D11*
X15500000Y6507500D02*
G75*
G02*
X15300000Y6507500I-100000J0D01*
G01*
X15300000Y6507500D02*
G75*
G02*
X15500000Y6507500I100000J0D01*
G01*
D10*
%TO.C,kibuzzard-69F8FCF4*%
G36*
X19135551Y19291248D02*
G01*
X18960730Y19291248D01*
X19048140Y19471649D01*
X19135551Y19291248D01*
G37*
G36*
X20333882Y18391725D02*
G01*
X19713948Y18391725D01*
X19455436Y18391725D01*
X18386052Y18391725D01*
X17766118Y18391725D01*
X17766118Y18836527D01*
X18402790Y18836527D01*
X18506938Y18746327D01*
X18642704Y18719360D01*
X18735694Y18822579D01*
X18821245Y19001119D01*
X19278755Y19001119D01*
X19364306Y18824438D01*
X19455436Y18717500D01*
X19593062Y18744467D01*
X19696280Y18835597D01*
X19671173Y18967643D01*
X19204363Y19932879D01*
X19140665Y20008201D01*
X19050000Y20033308D01*
X18958870Y20006341D01*
X18893777Y19934739D01*
X18426967Y18967643D01*
X18402790Y18836527D01*
X17766118Y18836527D01*
X17766118Y20343275D01*
X18386052Y20343275D01*
X19713948Y20343275D01*
X20333882Y20343275D01*
X20333882Y18391725D01*
G37*
D12*
%TO.C,D1*%
X1457500Y8437500D02*
X1457500Y7437500D01*
D10*
%TO.C,kibuzzard-69FD1032*%
G36*
X16980870Y18170893D02*
G01*
X17771881Y18170893D01*
X17772000Y18170893D01*
X17772000Y16754107D01*
X17771881Y16754107D01*
X16772119Y16754107D01*
X16772000Y16754107D01*
X16772000Y17798695D01*
X16864990Y17798695D01*
X16872858Y17752200D01*
X16897894Y17722157D01*
X16935805Y17696406D01*
X17330655Y17463215D01*
X16937236Y17230025D01*
X16900040Y17204274D01*
X16875004Y17173516D01*
X16867136Y17127021D01*
X16892887Y17065504D01*
X16935805Y17010426D01*
X16979439Y16993974D01*
X17016635Y17001127D01*
X17057408Y17021155D01*
X17625362Y17358780D01*
X17669353Y17400626D01*
X17684017Y17460354D01*
X17669711Y17522586D01*
X17626793Y17566220D01*
X17058838Y17903845D01*
X17018781Y17924589D01*
X16980870Y17931742D01*
X16936521Y17914574D01*
X16892887Y17860926D01*
X16864990Y17798695D01*
X16772000Y17798695D01*
X16772000Y18170893D01*
X16772119Y18170893D01*
X16980870Y18170893D01*
G37*
%TO.C,kibuzzard-689A642E*%
G36*
X3378419Y5520616D02*
G01*
X3467833Y5457669D01*
X3459965Y5353234D01*
X3203884Y4615037D01*
X3159178Y4548513D01*
X3079421Y4526339D01*
X3018620Y4539214D01*
X2978563Y4571403D01*
X2959965Y4601446D01*
X2952096Y4622190D01*
X2817618Y5062819D01*
X2683140Y4623621D01*
X2637003Y4550659D01*
X2555816Y4526339D01*
X2484285Y4547083D01*
X2445658Y4584279D01*
X2432783Y4615037D01*
X2175272Y5353234D01*
X2168834Y5459100D01*
X2258248Y5519186D01*
X2364829Y5525623D01*
X2422769Y5437641D01*
X2571553Y5002734D01*
X2688863Y5430488D01*
X2732497Y5502376D01*
X2814757Y5526339D01*
X2856245Y5522762D01*
X2887718Y5510602D01*
X2909893Y5494865D01*
X2925630Y5476267D01*
X2934929Y5458385D01*
X2942082Y5440502D01*
X2946374Y5429057D01*
X3063684Y4999872D01*
X3212468Y5437641D01*
X3270408Y5526339D01*
X3378419Y5520616D01*
G37*
G36*
X1814399Y5520616D02*
G01*
X1874843Y5503449D01*
X1934929Y5475552D01*
X1992153Y5437641D01*
X2043119Y5387033D01*
X2084428Y5321045D01*
X2111789Y5243613D01*
X2120909Y5158671D01*
X2111967Y5074086D01*
X2085143Y4997726D01*
X2044192Y4932812D01*
X1992869Y4882562D01*
X1934929Y4844651D01*
X1874128Y4816754D01*
X1813148Y4799586D01*
X1754671Y4793864D01*
X1601595Y4793864D01*
X1601595Y4656525D01*
X1599449Y4607169D01*
X1585859Y4568542D01*
X1545801Y4536353D01*
X1469979Y4526339D01*
X1395587Y4536353D01*
X1355530Y4569257D01*
X1341939Y4608599D01*
X1339793Y4657955D01*
X1339793Y5055666D01*
X1601595Y5055666D01*
X1756102Y5055666D01*
X1826917Y5081417D01*
X1860537Y5160101D01*
X1829779Y5234493D01*
X1754671Y5264536D01*
X1601595Y5264536D01*
X1601595Y5055666D01*
X1339793Y5055666D01*
X1339793Y5396153D01*
X1341939Y5444078D01*
X1355530Y5483420D01*
X1395587Y5516324D01*
X1471409Y5526339D01*
X1756102Y5526339D01*
X1814399Y5520616D01*
G37*
G36*
X4023090Y5520616D02*
G01*
X4082997Y5503449D01*
X4142726Y5475552D01*
X4200308Y5437641D01*
X4251631Y5387033D01*
X4292583Y5321045D01*
X4319407Y5243613D01*
X4328348Y5158671D01*
X4314360Y5051533D01*
X4272395Y4959020D01*
X4202454Y4881131D01*
X4305458Y4743792D01*
X4344085Y4645080D01*
X4275415Y4560674D01*
X4173841Y4521332D01*
X4093727Y4587855D01*
X3940651Y4795294D01*
X3807604Y4795294D01*
X3807604Y4656525D01*
X3805458Y4607169D01*
X3791867Y4568542D01*
X3751810Y4536353D01*
X3675987Y4526339D01*
X3601595Y4536353D01*
X3561538Y4569257D01*
X3547947Y4608599D01*
X3545801Y4657955D01*
X3545801Y5055666D01*
X3807604Y5055666D01*
X3964972Y5055666D01*
X4033641Y5081417D01*
X4066545Y5160101D01*
X4035787Y5234493D01*
X3962110Y5264536D01*
X3807604Y5264536D01*
X3807604Y5055666D01*
X3545801Y5055666D01*
X3545801Y5396153D01*
X3547947Y5444078D01*
X3561538Y5483420D01*
X3601595Y5516324D01*
X3677418Y5526339D01*
X3964972Y5526339D01*
X4023090Y5520616D01*
G37*
%TO.C,kibuzzard-69F8FD80*%
G36*
X6472747Y19663208D02*
G01*
X6492275Y19605554D01*
X6479256Y19547901D01*
X6434621Y19534882D01*
X6412303Y19534882D01*
X6298856Y19504195D01*
X6265379Y19397257D01*
X6296996Y19286599D01*
X6403004Y19254052D01*
X6427182Y19254052D01*
X6505293Y19236384D01*
X6529471Y19159202D01*
X6519242Y19100619D01*
X6491345Y19069002D01*
X6462518Y19058773D01*
X6436481Y19056913D01*
X6170529Y19056913D01*
X6170529Y19678087D01*
X6395565Y19678087D01*
X6472747Y19663208D01*
G37*
G36*
X7644731Y18406603D02*
G01*
X6869814Y18406603D01*
X5999428Y18406603D01*
X5830186Y18406603D01*
X5055269Y18406603D01*
X5055269Y19849188D01*
X5830186Y19849188D01*
X5830186Y18889531D01*
X5832976Y18824438D01*
X5850644Y18772364D01*
X5902718Y18729589D01*
X5999428Y18716570D01*
X6455079Y18716570D01*
X6562637Y18730209D01*
X6659657Y18771124D01*
X6746137Y18839317D01*
X6814020Y18927141D01*
X6855246Y19026950D01*
X6869814Y19138745D01*
X6845172Y19281484D01*
X6771245Y19412135D01*
X6817275Y19511634D01*
X6832618Y19620433D01*
X6819806Y19723445D01*
X6781370Y19816745D01*
X6717310Y19900333D01*
X6634859Y19965942D01*
X6541249Y20005308D01*
X6436481Y20018430D01*
X6001288Y20018430D01*
X5902718Y20005411D01*
X5850644Y19962636D01*
X5832976Y19911491D01*
X5830186Y19849188D01*
X5055269Y19849188D01*
X5055269Y20328397D01*
X5830186Y20328397D01*
X6869814Y20328397D01*
X7644731Y20328397D01*
X7644731Y18406603D01*
G37*
%TO.C,G\u002A\u002A\u002A*%
G36*
X17937740Y14322026D02*
G01*
X17976003Y14319410D01*
X18013293Y14314835D01*
X18049528Y14308504D01*
X18084632Y14300620D01*
X18118526Y14291387D01*
X18151131Y14281007D01*
X18182368Y14269683D01*
X18212159Y14257618D01*
X18240425Y14245016D01*
X18267088Y14232079D01*
X18315291Y14206014D01*
X18356139Y14181046D01*
X18389004Y14158799D01*
X18413256Y14140898D01*
X18433412Y14124628D01*
X18422633Y14126947D01*
X18392995Y14131713D01*
X18372371Y14133988D01*
X18348552Y14135644D01*
X18322045Y14136269D01*
X18293357Y14135453D01*
X18262993Y14132787D01*
X18231462Y14127858D01*
X18199269Y14120257D01*
X18183082Y14115327D01*
X18166920Y14109574D01*
X18150846Y14102948D01*
X18134923Y14095397D01*
X18119215Y14086870D01*
X18103784Y14077316D01*
X18088695Y14066684D01*
X18074010Y14054921D01*
X18059793Y14041978D01*
X18046107Y14027801D01*
X18029225Y14008148D01*
X18014296Y13988155D01*
X18001403Y13967797D01*
X17990632Y13947044D01*
X17986070Y13936512D01*
X17982069Y13925872D01*
X17978642Y13915119D01*
X17975798Y13904252D01*
X17973549Y13893265D01*
X17971905Y13882157D01*
X17970876Y13870923D01*
X17970473Y13859561D01*
X17970708Y13848066D01*
X17971589Y13836435D01*
X17973129Y13824665D01*
X17975338Y13812754D01*
X17978226Y13800696D01*
X17981804Y13788489D01*
X17986082Y13776129D01*
X17991072Y13763614D01*
X17996784Y13750939D01*
X18003228Y13738102D01*
X18010416Y13725098D01*
X18018357Y13711925D01*
X18027063Y13698578D01*
X18036544Y13685056D01*
X18057873Y13657469D01*
X18077568Y13634860D01*
X18099306Y13612451D01*
X18122833Y13590454D01*
X18147897Y13569077D01*
X18174244Y13548532D01*
X18201620Y13529026D01*
X18229771Y13510772D01*
X18258445Y13493977D01*
X18287389Y13478853D01*
X18316347Y13465610D01*
X18345068Y13454457D01*
X18373297Y13445603D01*
X18400782Y13439260D01*
X18414166Y13437095D01*
X18427268Y13435637D01*
X18440058Y13434911D01*
X18452503Y13434944D01*
X18464572Y13435761D01*
X18476232Y13437390D01*
X18492004Y13440983D01*
X18506480Y13445670D01*
X18519711Y13451372D01*
X18531751Y13458009D01*
X18542651Y13465503D01*
X18552464Y13473773D01*
X18561241Y13482742D01*
X18569036Y13492328D01*
X18575899Y13502455D01*
X18581883Y13513041D01*
X18587041Y13524008D01*
X18591425Y13535277D01*
X18595086Y13546769D01*
X18598077Y13558404D01*
X18600450Y13570103D01*
X18602257Y13581787D01*
X18604382Y13604792D01*
X18604870Y13626786D01*
X18604138Y13647135D01*
X18602604Y13665205D01*
X18600684Y13680363D01*
X18598796Y13691975D01*
X18596784Y13702024D01*
X18628909Y13689632D01*
X18661188Y13673202D01*
X18693446Y13652881D01*
X18725507Y13628816D01*
X18788332Y13570040D01*
X18848254Y13498046D01*
X18903863Y13414007D01*
X18953750Y13319095D01*
X18996505Y13214483D01*
X19030720Y13101343D01*
X19054985Y12980848D01*
X19062945Y12918209D01*
X19067890Y12854171D01*
X19069643Y12788880D01*
X19068027Y12722483D01*
X19062867Y12655127D01*
X19053986Y12586958D01*
X19041208Y12518123D01*
X19024358Y12448768D01*
X19003258Y12379040D01*
X18977733Y12309086D01*
X18947606Y12239051D01*
X18912702Y12169083D01*
X18872844Y12099329D01*
X18827856Y12029934D01*
X18776807Y11959793D01*
X18722803Y11893218D01*
X18665806Y11830395D01*
X18605783Y11771515D01*
X18542697Y11716763D01*
X18476512Y11666330D01*
X18407194Y11620403D01*
X18334706Y11579170D01*
X18259013Y11542819D01*
X18180079Y11511538D01*
X18097869Y11485517D01*
X18012347Y11464942D01*
X17923477Y11450002D01*
X17831224Y11440885D01*
X17735553Y11437780D01*
X17636427Y11440874D01*
X17610226Y11442443D01*
X17584893Y11442716D01*
X17560371Y11441718D01*
X17536605Y11439472D01*
X17513537Y11436002D01*
X17491111Y11431331D01*
X17469271Y11425483D01*
X17447960Y11418482D01*
X17427122Y11410351D01*
X17406700Y11401114D01*
X17386638Y11390795D01*
X17366879Y11379418D01*
X17328045Y11353582D01*
X17289746Y11323795D01*
X17251531Y11290247D01*
X17212948Y11253127D01*
X17173545Y11212625D01*
X17132870Y11168929D01*
X16948418Y10966000D01*
X16857883Y10867749D01*
X16772805Y10772889D01*
X16695222Y10684411D01*
X16627173Y10605310D01*
X16570697Y10538578D01*
X16527833Y10487206D01*
X16491095Y10442518D01*
X16491095Y12396024D01*
X16490357Y12434763D01*
X16490655Y12472051D01*
X16491963Y12507917D01*
X16494255Y12542391D01*
X16497502Y12575503D01*
X16501680Y12607281D01*
X16506760Y12637755D01*
X16512716Y12666955D01*
X16519522Y12694911D01*
X16527150Y12721651D01*
X16535574Y12747204D01*
X16544767Y12771602D01*
X16554702Y12794872D01*
X16565353Y12817045D01*
X16576692Y12838149D01*
X16588694Y12858215D01*
X16601330Y12877272D01*
X16614575Y12895349D01*
X16628401Y12912475D01*
X16642783Y12928681D01*
X16657692Y12943995D01*
X16673103Y12958448D01*
X16688988Y12972068D01*
X16705321Y12984884D01*
X16722075Y12996927D01*
X16739223Y13008226D01*
X16756738Y13018811D01*
X16774595Y13028710D01*
X16811222Y13046570D01*
X16848891Y13062043D01*
X16870033Y13069581D01*
X16890947Y13076204D01*
X16911602Y13081957D01*
X16931970Y13086882D01*
X16952022Y13091026D01*
X16971729Y13094431D01*
X16991062Y13097143D01*
X17009992Y13099206D01*
X17028490Y13100664D01*
X17046528Y13101561D01*
X17064075Y13101942D01*
X17081103Y13101851D01*
X17097583Y13101332D01*
X17113486Y13100430D01*
X17143445Y13097654D01*
X17170749Y13093876D01*
X17195164Y13089451D01*
X17216460Y13084735D01*
X17234404Y13080080D01*
X17248764Y13075843D01*
X17259308Y13072377D01*
X17268022Y13069179D01*
X17241103Y13058209D01*
X17212486Y13044890D01*
X17195856Y13036387D01*
X17178236Y13026698D01*
X17160047Y13015856D01*
X17141708Y13003894D01*
X17123638Y12990845D01*
X17106256Y12976741D01*
X17089981Y12961616D01*
X17082390Y12953681D01*
X17075234Y12945502D01*
X17068563Y12937085D01*
X17062432Y12928432D01*
X17056892Y12919549D01*
X17051996Y12910438D01*
X17047212Y12899439D01*
X17043311Y12888059D01*
X17040290Y12876340D01*
X17038147Y12864325D01*
X17036879Y12852055D01*
X17036484Y12839574D01*
X17036960Y12826922D01*
X17038304Y12814142D01*
X17040515Y12801277D01*
X17043589Y12788367D01*
X17047524Y12775456D01*
X17052318Y12762585D01*
X17057968Y12749797D01*
X17064473Y12737134D01*
X17071830Y12724637D01*
X17080036Y12712349D01*
X17089089Y12700312D01*
X17098987Y12688568D01*
X17109727Y12677158D01*
X17121307Y12666127D01*
X17133725Y12655514D01*
X17146977Y12645363D01*
X17161063Y12635715D01*
X17175979Y12626613D01*
X17191724Y12618099D01*
X17208294Y12610214D01*
X17225688Y12603001D01*
X17243902Y12596502D01*
X17262935Y12590760D01*
X17282785Y12585815D01*
X17303448Y12581711D01*
X17324923Y12578489D01*
X17356651Y12575470D01*
X17387864Y12574610D01*
X17418465Y12575832D01*
X17448355Y12579062D01*
X17477435Y12584224D01*
X17505608Y12591244D01*
X17532775Y12600046D01*
X17558837Y12610556D01*
X17583697Y12622697D01*
X17607255Y12636395D01*
X17629414Y12651575D01*
X17650075Y12668161D01*
X17669140Y12686079D01*
X17686510Y12705252D01*
X17702087Y12725607D01*
X17715773Y12747068D01*
X17727470Y12769559D01*
X17737078Y12793006D01*
X17744500Y12817333D01*
X17749637Y12842466D01*
X17752391Y12868328D01*
X17752664Y12894846D01*
X17750357Y12921943D01*
X17745372Y12949545D01*
X17737610Y12977576D01*
X17726973Y13005962D01*
X17713363Y13034627D01*
X17696681Y13063496D01*
X17676830Y13092493D01*
X17653710Y13121545D01*
X17627223Y13150575D01*
X17597272Y13179508D01*
X17530064Y13243847D01*
X17469250Y13309124D01*
X17441370Y13342043D01*
X17415242Y13375113D01*
X17390917Y13408305D01*
X17368448Y13441592D01*
X17347884Y13474944D01*
X17329278Y13508335D01*
X17312680Y13541735D01*
X17298142Y13575118D01*
X17285714Y13608454D01*
X17275449Y13641717D01*
X17267397Y13674877D01*
X17261609Y13707907D01*
X17258138Y13740779D01*
X17257033Y13773464D01*
X17258346Y13805936D01*
X17262128Y13838164D01*
X17268432Y13870123D01*
X17277306Y13901783D01*
X17288804Y13933117D01*
X17302976Y13964096D01*
X17319874Y13994692D01*
X17339548Y14024878D01*
X17362050Y14054626D01*
X17387430Y14083906D01*
X17415741Y14112692D01*
X17447034Y14140955D01*
X17481359Y14168667D01*
X17518768Y14195801D01*
X17562460Y14223937D01*
X17605962Y14248084D01*
X17649196Y14268445D01*
X17692084Y14285224D01*
X17734548Y14298623D01*
X17776507Y14308845D01*
X17817885Y14316094D01*
X17858602Y14320571D01*
X17898579Y14322481D01*
X17937740Y14322026D01*
G37*
D12*
%TO.C,C3*%
X8680336Y11917000D02*
X8464664Y11917000D01*
X8680336Y11197000D02*
X8464664Y11197000D01*
D13*
%TO.C,J5*%
X9400000Y25230000D02*
X9400000Y15230000D01*
X16000000Y25230000D02*
X16000000Y23330000D01*
X16000000Y21730000D02*
X16000000Y20330000D01*
X16000000Y18730000D02*
X16000000Y16330000D01*
X16000000Y13530000D02*
X9400000Y13530000D01*
X16000000Y13530000D02*
X16000000Y14730000D01*
D12*
%TO.C,R7*%
X20892500Y19203641D02*
X20892500Y18896359D01*
X21652500Y19203641D02*
X21652500Y18896359D01*
D14*
%TO.C,Y1*%
X5893000Y7673200D02*
X5893000Y7973200D01*
X7220000Y9200200D02*
X8020000Y9200200D01*
X8020000Y6446200D02*
X7220000Y6446200D01*
X9347000Y7973200D02*
X9347000Y7673200D01*
D12*
%TO.C,C4*%
X8464664Y10875600D02*
X8680336Y10875600D01*
X8464664Y10155600D02*
X8680336Y10155600D01*
D14*
%TO.C,J1*%
X20987500Y15700000D02*
X22637500Y15700000D01*
X20987500Y14950000D02*
X20987500Y15700000D01*
X20987500Y9700000D02*
X20987500Y10450000D01*
X22637500Y9700000D02*
X20987500Y9700000D01*
X25237500Y11200000D02*
X25237500Y14200000D01*
D10*
%TO.C,kibuzzard-689A66EE*%
G36*
X11489871Y4491599D02*
G01*
X11364979Y4552114D01*
X11489871Y4612629D01*
X11489871Y4491599D01*
G37*
G36*
X11509024Y3825612D02*
G01*
X11578069Y3778294D01*
X11624903Y3709088D01*
X11640515Y3627650D01*
X11640515Y3523358D01*
X11211760Y3523358D01*
X11211760Y3626363D01*
X11227532Y3708766D01*
X11274850Y3778294D01*
X11344378Y3825612D01*
X11426781Y3841384D01*
X11509024Y3825612D01*
G37*
G36*
X12112618Y3404903D02*
G01*
X12112618Y2902758D01*
X12112618Y2567994D01*
X12112618Y1924217D01*
X10747382Y1924217D01*
X10747382Y2567994D01*
X10747382Y2891170D01*
X10961974Y2891170D01*
X10970629Y2808623D01*
X10996595Y2736091D01*
X11039871Y2673573D01*
X11096309Y2625647D01*
X11161760Y2596892D01*
X11236223Y2587307D01*
X11319914Y2597607D01*
X11389442Y2628509D01*
X11444807Y2680011D01*
X11486009Y2752114D01*
X11503552Y2800880D01*
X11520129Y2862200D01*
X11550386Y2963273D01*
X11590300Y2996749D01*
X11650172Y2973573D01*
X11668841Y2897607D01*
X11656609Y2846749D01*
X11609614Y2794603D01*
X11562690Y2736520D01*
X11554106Y2680726D01*
X11583863Y2627221D01*
X11666266Y2573144D01*
X11749957Y2605333D01*
X11758970Y2613058D01*
X11776996Y2627221D01*
X11799528Y2649753D01*
X11824635Y2680655D01*
X11849099Y2720569D01*
X11870343Y2770139D01*
X11884506Y2830655D01*
X11890300Y2902758D01*
X11880644Y2988380D01*
X11847811Y3076577D01*
X11790515Y3155762D01*
X11703605Y3211770D01*
X11647918Y3228187D01*
X11586438Y3233659D01*
X11490193Y3221588D01*
X11420343Y3185376D01*
X11371416Y3128884D01*
X11337940Y3055976D01*
X11317983Y2973573D01*
X11301888Y2895032D01*
X11279356Y2844174D01*
X11237511Y2821642D01*
X11198240Y2842242D01*
X11182146Y2889882D01*
X11186652Y2932371D01*
X11196309Y2957479D01*
X11211116Y2975504D01*
X11223348Y2990311D01*
X11247167Y3076577D01*
X11184721Y3152543D01*
X11105536Y3183444D01*
X11039227Y3137092D01*
X10996309Y3070283D01*
X10970558Y2988308D01*
X10961974Y2891170D01*
X10747382Y2891170D01*
X10747382Y3627650D01*
X10976137Y3627650D01*
X10976137Y3406191D01*
X10984506Y3337951D01*
X11013476Y3301899D01*
X11048884Y3289667D01*
X11092017Y3287736D01*
X11757682Y3287736D01*
X11803391Y3290955D01*
X11839442Y3304474D01*
X11867124Y3339882D01*
X11876137Y3404903D01*
X11876137Y3623788D01*
X11867808Y3714319D01*
X11842822Y3797929D01*
X11801178Y3874619D01*
X11742876Y3944388D01*
X11672825Y4002409D01*
X11595933Y4043852D01*
X11512202Y4068718D01*
X11421631Y4077006D01*
X11333433Y4068718D01*
X11251674Y4043852D01*
X11176352Y4002409D01*
X11107468Y3944388D01*
X11050011Y3874861D01*
X11008970Y3798895D01*
X10984345Y3716491D01*
X10976137Y3627650D01*
X10747382Y3627650D01*
X10747382Y4553401D01*
X10976137Y4553401D01*
X10994807Y4490311D01*
X11044378Y4445247D01*
X11713906Y4122071D01*
X11804678Y4105333D01*
X11867124Y4177436D01*
X11885794Y4271427D01*
X11814335Y4335805D01*
X11690730Y4395032D01*
X11690730Y4711770D01*
X11813047Y4770998D01*
X11887082Y4834088D01*
X11868412Y4929367D01*
X11805322Y5000826D01*
X11713906Y4983444D01*
X11045665Y4660268D01*
X10993519Y4616170D01*
X10976137Y4553401D01*
X10747382Y4553401D01*
X10747382Y5013058D01*
X10747382Y5013165D01*
X10750669Y5080074D01*
X10760498Y5146337D01*
X10776775Y5211319D01*
X10799343Y5274392D01*
X10827985Y5334949D01*
X10862424Y5392407D01*
X10902329Y5446214D01*
X10947316Y5495849D01*
X10996952Y5540836D01*
X11050758Y5580741D01*
X11108216Y5615181D01*
X11168773Y5643822D01*
X11231846Y5666390D01*
X11296828Y5682667D01*
X11363092Y5692496D01*
X11430000Y5695783D01*
X11496908Y5692496D01*
X11563172Y5682667D01*
X11628154Y5666390D01*
X11691227Y5643822D01*
X11751784Y5615181D01*
X11809242Y5580741D01*
X11863048Y5540836D01*
X11912684Y5495849D01*
X11957671Y5446214D01*
X11997576Y5392407D01*
X12032015Y5334949D01*
X12060657Y5274392D01*
X12083225Y5211319D01*
X12099502Y5146337D01*
X12109331Y5080074D01*
X12112618Y5013165D01*
X12112618Y5013058D01*
X12112618Y4834088D01*
X12112618Y3404903D01*
G37*
%TO.C,kibuzzard-69F8FC1F*%
G36*
X8683353Y21766275D02*
G01*
X8789942Y21733942D01*
X8888175Y21681435D01*
X8974277Y21610773D01*
X9044939Y21524671D01*
X9097445Y21426438D01*
X9129779Y21319849D01*
X9140696Y21209000D01*
X9129779Y21098151D01*
X9097445Y20991562D01*
X9044939Y20893329D01*
X8974277Y20807227D01*
X8888175Y20736565D01*
X8789942Y20684058D01*
X8683353Y20651725D01*
X8572504Y20640807D01*
X8572384Y20640807D01*
X8191662Y20640807D01*
X7810940Y20640807D01*
X7572504Y20640807D01*
X7572504Y21209715D01*
X7861190Y21209715D01*
X7869774Y21141046D01*
X7897671Y21105280D01*
X7930575Y21093120D01*
X7971347Y21090974D01*
X8074352Y21090974D01*
X8074352Y20997984D01*
X8076497Y20954351D01*
X8088658Y20918585D01*
X8124423Y20888542D01*
X8191662Y20879243D01*
X8260332Y20888542D01*
X8296097Y20917870D01*
X8308257Y20952920D01*
X8310403Y20996554D01*
X8310403Y21090974D01*
X8411977Y21090974D01*
X8452749Y21093120D01*
X8485653Y21105280D01*
X8513550Y21141046D01*
X8522134Y21208285D01*
X8512835Y21277670D01*
X8483507Y21314150D01*
X8448457Y21326310D01*
X8404824Y21328456D01*
X8310403Y21328456D01*
X8310403Y21421446D01*
X8308257Y21465080D01*
X8296097Y21500130D01*
X8260332Y21529458D01*
X8193093Y21538757D01*
X8124423Y21530173D01*
X8088658Y21501561D01*
X8076497Y21466511D01*
X8074352Y21422877D01*
X8074352Y21328456D01*
X7981362Y21328456D01*
X7937012Y21326310D01*
X7900532Y21314150D01*
X7870489Y21278385D01*
X7861190Y21209715D01*
X7572504Y21209715D01*
X7572504Y21777193D01*
X7810940Y21777193D01*
X8572384Y21777193D01*
X8572504Y21777193D01*
X8683353Y21766275D01*
G37*
D12*
%TO.C,C8*%
X5990000Y15767164D02*
X5990000Y15982836D01*
X6710000Y15767164D02*
X6710000Y15982836D01*
D10*
%TO.C,kibuzzard-69F8C340*%
G36*
X19823176Y2903444D02*
G01*
X19823176Y2597006D01*
X19823176Y2479839D01*
X19823176Y1836062D01*
X18276824Y1836062D01*
X18276824Y2479839D01*
X18276824Y4418895D01*
X18491416Y4418895D01*
X18491416Y2479839D01*
X18598712Y2479839D01*
X18598712Y2598294D01*
X18707296Y2598294D01*
X18716309Y2530054D01*
X18745923Y2494002D01*
X18781330Y2481770D01*
X18824464Y2479839D01*
X19490129Y2479839D01*
X19534549Y2481770D01*
X19569957Y2494002D01*
X19599571Y2530054D01*
X19608584Y2597006D01*
X19599571Y2665247D01*
X19570601Y2701298D01*
X19535837Y2713530D01*
X19491416Y2715461D01*
X18825751Y2715461D01*
X18781330Y2713530D01*
X18745923Y2701298D01*
X18716309Y2665247D01*
X18707296Y2598294D01*
X18598712Y2598294D01*
X18598712Y3460955D01*
X18708584Y3460955D01*
X18717597Y3394002D01*
X18745279Y3357951D01*
X18779399Y3345075D01*
X18821888Y3342500D01*
X19191416Y3342500D01*
X18758798Y3020612D01*
X18732403Y2997436D01*
X18716309Y2964603D01*
X18708584Y2906019D01*
X18716953Y2838423D01*
X18744635Y2803015D01*
X18778755Y2790139D01*
X18821888Y2787564D01*
X19490129Y2787564D01*
X19535193Y2790139D01*
X19570601Y2802371D01*
X19599571Y2837135D01*
X19608584Y2903444D01*
X19599571Y2971685D01*
X19570601Y3007736D01*
X19535837Y3019968D01*
X19491416Y3021899D01*
X19133476Y3021899D01*
X19573820Y3355376D01*
X19601502Y3393358D01*
X19608584Y3459667D01*
X19599571Y3527908D01*
X19570601Y3563959D01*
X19535837Y3576191D01*
X19491416Y3578122D01*
X18827039Y3578122D01*
X18782618Y3576191D01*
X18747210Y3563959D01*
X18717597Y3527908D01*
X18708584Y3460955D01*
X18598712Y3460955D01*
X18598712Y4321041D01*
X18706009Y4321041D01*
X18706009Y3732629D01*
X18707940Y3695933D01*
X18718240Y3666320D01*
X18747854Y3641212D01*
X18803863Y3633487D01*
X18861803Y3641212D01*
X18892060Y3665676D01*
X18902361Y3694646D01*
X18904292Y3731341D01*
X18904292Y3910311D01*
X19492704Y3910311D01*
X19535837Y3912242D01*
X19570601Y3923830D01*
X19599571Y3958594D01*
X19608584Y4024903D01*
X19599571Y4091856D01*
X19571245Y4127908D01*
X19537124Y4140139D01*
X19493991Y4142071D01*
X18904292Y4142071D01*
X18904292Y4319753D01*
X18902361Y4356448D01*
X18892060Y4386062D01*
X18861803Y4411170D01*
X18805150Y4418895D01*
X18748498Y4411170D01*
X18718240Y4386706D01*
X18707940Y4357736D01*
X18706009Y4321041D01*
X18598712Y4321041D01*
X18598712Y4418895D01*
X18491416Y4418895D01*
X18276824Y4418895D01*
X18276824Y4633487D01*
X18276824Y5148938D01*
X19050000Y4633487D01*
X19823176Y5148938D01*
X19823176Y4633487D01*
X19823176Y4418895D01*
X19823176Y4024903D01*
X19823176Y2903444D01*
G37*
D12*
%TO.C,C5*%
X7829664Y6075000D02*
X8045336Y6075000D01*
X7829664Y5355000D02*
X8045336Y5355000D01*
D10*
%TO.C,kibuzzard-69FA1293*%
G36*
X20865705Y8828222D02*
G01*
X20922357Y8814059D01*
X20973501Y8778652D01*
X20993172Y8718852D01*
X20984517Y8645086D01*
X20958552Y8584303D01*
X20870426Y8530011D01*
X20809839Y8541813D01*
X20771284Y8553616D01*
X20693387Y8530798D01*
X20662700Y8473358D01*
X20662700Y8166491D01*
X20660340Y8112986D01*
X20645390Y8071284D01*
X20601327Y8035876D01*
X20517922Y8024861D01*
X20436878Y8035876D01*
X20393602Y8072071D01*
X20378652Y8115347D01*
X20376291Y8169639D01*
X20376291Y8682657D01*
X20378652Y8736162D01*
X20393602Y8777865D01*
X20436878Y8813273D01*
X20519496Y8824288D01*
X20610769Y8808158D01*
X20654832Y8759768D01*
X20734303Y8814059D01*
X20818494Y8832157D01*
X20865705Y8828222D01*
G37*
G36*
X21545533Y8828222D02*
G01*
X21602185Y8814059D01*
X21653330Y8778652D01*
X21673001Y8718852D01*
X21664345Y8645086D01*
X21638380Y8584303D01*
X21550254Y8530011D01*
X21489667Y8541813D01*
X21451112Y8553616D01*
X21373215Y8530798D01*
X21342529Y8473358D01*
X21342529Y8166491D01*
X21340168Y8112986D01*
X21325218Y8071284D01*
X21281155Y8035876D01*
X21197750Y8024861D01*
X21116706Y8035876D01*
X21073430Y8072071D01*
X21058480Y8115347D01*
X21056119Y8169639D01*
X21056119Y8682657D01*
X21058480Y8736162D01*
X21073430Y8777865D01*
X21116706Y8813273D01*
X21199324Y8824288D01*
X21290597Y8808158D01*
X21334660Y8759768D01*
X21414131Y8814059D01*
X21498323Y8832157D01*
X21545533Y8828222D01*
G37*
G36*
X20220497Y8814846D02*
G01*
X20264560Y8778652D01*
X20279510Y8735376D01*
X20281871Y8682657D01*
X20281871Y8164918D01*
X20281084Y8123215D01*
X20272428Y8087021D01*
X20250397Y8054760D01*
X20207908Y8035089D01*
X20138666Y8026434D01*
X20044639Y8044925D01*
X20001756Y8100397D01*
X19925039Y8046105D01*
X19839667Y8028008D01*
X19743498Y8040772D01*
X19658520Y8079065D01*
X19584732Y8142886D01*
X19527905Y8225417D01*
X19493808Y8319837D01*
X19482443Y8426148D01*
X19482443Y8682657D01*
X19484803Y8736949D01*
X19499753Y8779438D01*
X19543816Y8814846D01*
X19625647Y8825862D01*
X19707479Y8814846D01*
X19751541Y8778652D01*
X19766491Y8735376D01*
X19768852Y8681084D01*
X19768852Y8426148D01*
X19798752Y8342743D01*
X19882157Y8312843D01*
X19964775Y8343530D01*
X19995461Y8426148D01*
X19995461Y8684231D01*
X19997822Y8736949D01*
X20012772Y8779438D01*
X20056048Y8814846D01*
X20138666Y8825862D01*
X20220497Y8814846D01*
G37*
G36*
X23151907Y8811874D02*
G01*
X23230591Y8774630D01*
X23293888Y8712557D01*
X23340224Y8631076D01*
X23368025Y8535606D01*
X23377293Y8426148D01*
X23377293Y8168065D01*
X23374932Y8115347D01*
X23359982Y8072858D01*
X23316706Y8037450D01*
X23234088Y8026434D01*
X23150683Y8037450D01*
X23106620Y8073644D01*
X23091670Y8116921D01*
X23089310Y8169639D01*
X23089310Y8426148D01*
X23060197Y8509553D01*
X22977579Y8539453D01*
X22894174Y8508766D01*
X22862700Y8426148D01*
X22862700Y8168065D01*
X22860340Y8115347D01*
X22845390Y8072858D01*
X22801327Y8037450D01*
X22719496Y8026434D01*
X22638451Y8037450D01*
X22595175Y8072858D01*
X22580225Y8115347D01*
X22577865Y8169639D01*
X22577865Y8687378D01*
X22581012Y8739310D01*
X22595962Y8780225D01*
X22639238Y8814059D01*
X22721069Y8824288D01*
X22795032Y8814846D01*
X22837521Y8788881D01*
X22854832Y8758981D01*
X22859553Y8726720D01*
X22943745Y8794388D01*
X23057836Y8824288D01*
X23151907Y8811874D01*
G37*
G36*
X22251851Y8830233D02*
G01*
X22341813Y8796137D01*
X22413416Y8739310D01*
X22483641Y8634267D01*
X22507049Y8523716D01*
X22496230Y8445622D01*
X22463773Y8387593D01*
X22413612Y8351595D01*
X22349682Y8339596D01*
X22014489Y8339596D01*
X22061699Y8279796D01*
X22154546Y8257765D01*
X22282014Y8278222D01*
X22354403Y8298680D01*
X22406334Y8279796D01*
X22448823Y8223144D01*
X22469281Y8150755D01*
X22448823Y8088103D01*
X22387450Y8043351D01*
X22285161Y8016500D01*
X22141956Y8007550D01*
X22036520Y8017189D01*
X21943673Y8046105D01*
X21866760Y8090758D01*
X21809124Y8147607D01*
X21767028Y8212128D01*
X21736735Y8279796D01*
X21718441Y8349825D01*
X21712343Y8421427D01*
X21719952Y8487521D01*
X22014489Y8487521D01*
X22190740Y8487521D01*
X22233230Y8525290D01*
X22208051Y8571713D01*
X22140383Y8588237D01*
X22051470Y8557550D01*
X22014489Y8487521D01*
X21719952Y8487521D01*
X21725719Y8537617D01*
X21765848Y8638594D01*
X21832729Y8724360D01*
X21920767Y8789493D01*
X22024368Y8828572D01*
X22143530Y8841599D01*
X22251851Y8830233D01*
G37*
G36*
X23793530Y9077650D02*
G01*
X23836806Y9042242D01*
X23852543Y8998180D01*
X23855690Y8945461D01*
X23855690Y8819567D01*
X23939095Y8822715D01*
X23980798Y8821928D01*
X24017779Y8813273D01*
X24051613Y8791241D01*
X24072071Y8747965D01*
X24080726Y8677936D01*
X24068923Y8600039D01*
X24034303Y8556763D01*
X23991026Y8540240D01*
X23937521Y8536305D01*
X23855690Y8537879D01*
X23855690Y8355333D01*
X23864345Y8308122D01*
X23898180Y8295533D01*
X23956406Y8292386D01*
X23998895Y8277436D01*
X24030368Y8238881D01*
X24039810Y8166491D01*
X24028008Y8085447D01*
X23991026Y8042171D01*
X23947750Y8027221D01*
X23896606Y8024861D01*
X23795104Y8033428D01*
X23713010Y8059132D01*
X23650325Y8101971D01*
X23606175Y8162820D01*
X23579685Y8242552D01*
X23570855Y8341170D01*
X23570855Y8541026D01*
X23531513Y8541026D01*
X23458337Y8575647D01*
X23437092Y8679510D01*
X23462271Y8781012D01*
X23537808Y8814846D01*
X23570855Y8814846D01*
X23570855Y8951756D01*
X23573215Y9004474D01*
X23588165Y9045390D01*
X23631441Y9078437D01*
X23714059Y9088666D01*
X23793530Y9077650D01*
G37*
G36*
X19132387Y9127658D02*
G01*
X19228906Y9098283D01*
X19328222Y9049324D01*
X19370712Y9019424D01*
X19399825Y8986377D01*
X19414775Y8939167D01*
X19380154Y8851041D01*
X19321141Y8787307D01*
X19266849Y8766062D01*
X19181871Y8802257D01*
X19171642Y8809338D01*
X19158265Y8817994D01*
X19143315Y8826649D01*
X19122071Y8834517D01*
X19096892Y8840812D01*
X19065418Y8846320D01*
X19027650Y8847893D01*
X18937951Y8832157D01*
X18849038Y8785733D01*
X18779009Y8699968D01*
X18758945Y8640955D01*
X18752257Y8574074D01*
X18764256Y8488112D01*
X18800254Y8415919D01*
X18851202Y8360644D01*
X18908051Y8325433D01*
X19027650Y8300254D01*
X19110662Y8313237D01*
X19189739Y8352185D01*
X19268423Y8383659D01*
X19321928Y8361234D01*
X19378580Y8293959D01*
X19413201Y8202686D01*
X19391170Y8145247D01*
X19326649Y8097250D01*
X19233277Y8048291D01*
X19135709Y8018916D01*
X19033945Y8009124D01*
X18967260Y8013845D01*
X18896248Y8028008D01*
X18821892Y8053383D01*
X18745175Y8091742D01*
X18671409Y8141313D01*
X18605905Y8200325D01*
X18549843Y8272911D01*
X18504403Y8363201D01*
X18474306Y8467457D01*
X18464274Y8581942D01*
X18474109Y8692099D01*
X18503616Y8792815D01*
X18548466Y8880351D01*
X18604331Y8950969D01*
X18669835Y9008408D01*
X18743602Y9056406D01*
X18820712Y9093584D01*
X18896248Y9118566D01*
X18969227Y9132729D01*
X19038666Y9137450D01*
X19132387Y9127658D01*
G37*
D12*
%TO.C,C7*%
X18690000Y15767164D02*
X18690000Y15982836D01*
X19410000Y15767164D02*
X19410000Y15982836D01*
D14*
%TO.C,J2*%
X162500Y14200000D02*
X162500Y11200000D01*
X2762500Y15700000D02*
X4412500Y15700000D01*
X4412500Y15700000D02*
X4412500Y14950000D01*
X4412500Y10450000D02*
X4412500Y9700000D01*
X4412500Y9700000D02*
X2762500Y9700000D01*
D12*
%TO.C,C1*%
X11537836Y13377500D02*
X11322164Y13377500D01*
X11537836Y12657500D02*
X11322164Y12657500D01*
%TO.C,R5*%
X12320000Y4281141D02*
X12320000Y3973859D01*
X13080000Y4281141D02*
X13080000Y3973859D01*
D10*
%TO.C,kibuzzard-69F8FC1F*%
G36*
X17157538Y21777193D02*
G01*
X17538260Y21777193D01*
X17776696Y21777193D01*
X17776696Y20640807D01*
X17538260Y20640807D01*
X16776816Y20640807D01*
X16776696Y20640807D01*
X16665847Y20651725D01*
X16559258Y20684058D01*
X16461025Y20736565D01*
X16374923Y20807227D01*
X16304261Y20893329D01*
X16251755Y20991562D01*
X16219421Y21098151D01*
X16208504Y21209000D01*
X16208574Y21209715D01*
X16827066Y21209715D01*
X16836365Y21140330D01*
X16865693Y21103850D01*
X16900743Y21091690D01*
X16944376Y21089544D01*
X17038797Y21089544D01*
X17038797Y20996554D01*
X17040943Y20952920D01*
X17053103Y20917870D01*
X17088868Y20888542D01*
X17156107Y20879243D01*
X17224777Y20887827D01*
X17260542Y20916439D01*
X17272703Y20951489D01*
X17274848Y20995123D01*
X17274848Y21089544D01*
X17367838Y21089544D01*
X17412188Y21091690D01*
X17448668Y21103850D01*
X17478711Y21139615D01*
X17488010Y21208285D01*
X17479426Y21276954D01*
X17451529Y21312720D01*
X17418625Y21324880D01*
X17377853Y21327026D01*
X17274848Y21327026D01*
X17274848Y21420016D01*
X17272703Y21463649D01*
X17260542Y21499415D01*
X17224777Y21529458D01*
X17157538Y21538757D01*
X17088868Y21529458D01*
X17053103Y21500130D01*
X17040943Y21465080D01*
X17038797Y21421446D01*
X17038797Y21327026D01*
X16937223Y21327026D01*
X16896451Y21324880D01*
X16863547Y21312720D01*
X16835650Y21276954D01*
X16827066Y21209715D01*
X16208574Y21209715D01*
X16219421Y21319849D01*
X16251755Y21426438D01*
X16304261Y21524671D01*
X16374923Y21610773D01*
X16461025Y21681435D01*
X16559258Y21733942D01*
X16665847Y21766275D01*
X16776696Y21777193D01*
X16776816Y21777193D01*
X17157538Y21777193D01*
G37*
D12*
%TO.C,R2*%
X6112742Y18302500D02*
X6587258Y18302500D01*
X6112742Y17257500D02*
X6587258Y17257500D01*
%TO.C,R10*%
X3747500Y19203641D02*
X3747500Y18896359D01*
X4507500Y19203641D02*
X4507500Y18896359D01*
D10*
%TO.C,kibuzzard-69FD1060*%
G36*
X16644997Y18140501D02*
G01*
X16806657Y18140501D01*
X16806800Y18140501D01*
X16806800Y16759099D01*
X16806657Y16759099D01*
X15806943Y16759099D01*
X15806800Y16759099D01*
X15806800Y17450658D01*
X15863882Y17450658D01*
X15872465Y17382847D01*
X15968603Y17331345D01*
X16643281Y17331345D01*
X16717100Y17345079D01*
X16742852Y17381130D01*
X16749718Y17449800D01*
X16741135Y17518470D01*
X16644997Y17568255D01*
X15970319Y17568255D01*
X15896500Y17554521D01*
X15871607Y17518470D01*
X15863882Y17450658D01*
X15806800Y17450658D01*
X15806800Y18140501D01*
X15806943Y18140501D01*
X16644997Y18140501D01*
G37*
D12*
%TO.C,R3*%
X2620242Y6872500D02*
X3094758Y6872500D01*
X2620242Y5827500D02*
X3094758Y5827500D01*
%TO.C,R4*%
X14860000Y4281141D02*
X14860000Y3973859D01*
X15620000Y4281141D02*
X15620000Y3973859D01*
%TO.C,R1*%
X18812742Y18302500D02*
X19287258Y18302500D01*
X18812742Y17257500D02*
X19287258Y17257500D01*
D10*
%TO.C,kibuzzard-69FD10A0*%
G36*
X17191330Y4281817D02*
G01*
X17191330Y4038469D01*
X17191330Y2665937D01*
X17191330Y2548770D01*
X17191330Y1797697D01*
X15828670Y1797697D01*
X15828670Y2548770D01*
X15828670Y3148770D01*
X16058712Y3148770D01*
X16058712Y2667225D01*
X16060644Y2622804D01*
X16072876Y2587396D01*
X16108927Y2557783D01*
X16177167Y2548770D01*
X16242189Y2558426D01*
X16276953Y2589328D01*
X16288541Y2626023D01*
X16290472Y2671087D01*
X16290472Y2923448D01*
X16786180Y2565508D01*
X16844120Y2548770D01*
X16929742Y2582246D01*
X16963863Y2665937D01*
X16963863Y3164220D01*
X16961931Y3208641D01*
X16949700Y3244049D01*
X16913648Y3273662D01*
X16846695Y3282675D01*
X16782318Y3273662D01*
X16748197Y3244692D01*
X16735966Y3209285D01*
X16733391Y3166795D01*
X16733391Y2891259D01*
X16237682Y3249199D01*
X16179742Y3265937D01*
X16093476Y3231817D01*
X16058712Y3148770D01*
X15828670Y3148770D01*
X15828670Y4039757D01*
X16045193Y4039757D01*
X16098627Y3961216D01*
X16336824Y3744907D01*
X16098627Y3527310D01*
X16045193Y3448770D01*
X16090901Y3361216D01*
X16174592Y3311645D01*
X16256996Y3354778D01*
X16510644Y3586538D01*
X16764292Y3356066D01*
X16847339Y3311645D01*
X16929099Y3362504D01*
X16974807Y3450057D01*
X16921373Y3528598D01*
X16684464Y3744907D01*
X16921373Y3959928D01*
X16974807Y4038469D01*
X16929099Y4126023D01*
X16847339Y4176881D01*
X16764292Y4132461D01*
X16510644Y3901989D01*
X16256996Y4133748D01*
X16174592Y4177525D01*
X16090901Y4127310D01*
X16045193Y4039757D01*
X15828670Y4039757D01*
X15828670Y4789113D01*
X16770730Y4789113D01*
X16770730Y4283104D01*
X16781030Y4227740D01*
X16808069Y4208426D01*
X16859571Y4203276D01*
X16911073Y4209714D01*
X16948412Y4281817D01*
X16948412Y4787825D01*
X16938112Y4843190D01*
X16911073Y4861860D01*
X16860215Y4867654D01*
X16809356Y4861216D01*
X16770730Y4789113D01*
X15828670Y4789113D01*
X15828670Y5036323D01*
X16060000Y5036323D01*
X16069013Y4968083D01*
X16098627Y4932031D01*
X16134034Y4919800D01*
X16177167Y4917868D01*
X16842833Y4917868D01*
X16887253Y4919800D01*
X16922661Y4932031D01*
X16952275Y4968083D01*
X16961288Y5035036D01*
X16952275Y5103276D01*
X16923305Y5139328D01*
X16888541Y5151559D01*
X16844120Y5153491D01*
X16178455Y5153491D01*
X16134034Y5151559D01*
X16098627Y5139328D01*
X16069013Y5103276D01*
X16060000Y5036323D01*
X15828670Y5036323D01*
X15828670Y5153491D01*
X15828670Y5368083D01*
X15828670Y5822303D01*
X16510000Y5368083D01*
X17191330Y5822303D01*
X17191330Y5368083D01*
X17191330Y5153491D01*
X17191330Y5035036D01*
X17191330Y4281817D01*
G37*
D12*
%TO.C,C9*%
X2815000Y18942164D02*
X2815000Y19157836D01*
X3535000Y18942164D02*
X3535000Y19157836D01*
%TO.C,C2*%
X16150000Y8782164D02*
X16150000Y8997836D01*
X16870000Y8782164D02*
X16870000Y8997836D01*
D10*
%TO.C,kibuzzard-689A66E9*%
G36*
X9571974Y3709667D02*
G01*
X9571974Y2872758D01*
X9571974Y2528981D01*
X9571974Y1885204D01*
X8208026Y1885204D01*
X8208026Y2528981D01*
X8208026Y2872758D01*
X8427768Y2872758D01*
X8433562Y2801298D01*
X8449013Y2742071D01*
X8471545Y2694431D01*
X8497940Y2656448D01*
X8525622Y2628122D01*
X8551373Y2607521D01*
X8572618Y2594646D01*
X8586781Y2587564D01*
X8591288Y2585633D01*
X8680129Y2566964D01*
X8750944Y2630697D01*
X8773977Y2699653D01*
X8758956Y2753730D01*
X8705880Y2792929D01*
X8667253Y2830268D01*
X8654378Y2885633D01*
X8670472Y2944217D01*
X8714893Y2965461D01*
X8747725Y2946792D01*
X8756094Y2886921D01*
X8756094Y2877908D01*
X8758026Y2836706D01*
X8768970Y2803873D01*
X8802446Y2776835D01*
X8866824Y2768466D01*
X8923476Y2776191D01*
X8956953Y2791642D01*
X8973047Y2820612D01*
X8978841Y2850225D01*
X8978841Y2885633D01*
X8997511Y2959989D01*
X9053519Y2984775D01*
X9106953Y2954517D01*
X9126910Y2874045D01*
X9119828Y2828337D01*
X9104378Y2797436D01*
X9085064Y2778122D01*
X9069614Y2768466D01*
X9062532Y2765891D01*
X9002017Y2728552D01*
X8987854Y2657736D01*
X9008133Y2561170D01*
X9068970Y2528981D01*
X9142289Y2540426D01*
X9209456Y2574760D01*
X9270472Y2631985D01*
X9318755Y2704517D01*
X9347725Y2784775D01*
X9357382Y2872758D01*
X9347725Y2967393D01*
X9318755Y3050440D01*
X9270472Y3121899D01*
X9207454Y3176620D01*
X9134278Y3209453D01*
X9050944Y3220397D01*
X8989142Y3211706D01*
X8937639Y3185633D01*
X8868112Y3113530D01*
X8804056Y3180161D01*
X8709742Y3202371D01*
X8640644Y3192428D01*
X8575837Y3162600D01*
X8515322Y3112886D01*
X8466681Y3046434D01*
X8437496Y2966391D01*
X8427768Y2872758D01*
X8208026Y2872758D01*
X8208026Y3444431D01*
X8435494Y3444431D01*
X8454807Y3347865D01*
X8515966Y3275762D01*
X8605451Y3288637D01*
X9276266Y3593788D01*
X9324549Y3637564D01*
X9340644Y3709667D01*
X9323262Y3775976D01*
X9276266Y3820397D01*
X8605451Y4125547D01*
X8516609Y4140354D01*
X8454807Y4066320D01*
X8436137Y3971041D01*
X8508884Y3910526D01*
X9009742Y3707092D01*
X8508884Y3503659D01*
X8435494Y3444431D01*
X8208026Y3444431D01*
X8208026Y4537564D01*
X8427768Y4537564D01*
X8433562Y4466105D01*
X8449013Y4406878D01*
X8471545Y4359238D01*
X8497940Y4321255D01*
X8525622Y4292929D01*
X8551373Y4272328D01*
X8572618Y4259453D01*
X8586781Y4252371D01*
X8591288Y4250440D01*
X8680129Y4231770D01*
X8750944Y4295504D01*
X8773977Y4364460D01*
X8758956Y4418537D01*
X8705880Y4457736D01*
X8667253Y4495075D01*
X8654378Y4550440D01*
X8670472Y4609024D01*
X8714893Y4630268D01*
X8747725Y4611599D01*
X8756094Y4551727D01*
X8756094Y4542715D01*
X8758026Y4501513D01*
X8768970Y4468680D01*
X8802446Y4441642D01*
X8866824Y4433273D01*
X8923476Y4440998D01*
X8956953Y4456448D01*
X8973047Y4485418D01*
X8978841Y4515032D01*
X8978841Y4550440D01*
X8997511Y4624796D01*
X9053519Y4649582D01*
X9106953Y4619324D01*
X9126910Y4538852D01*
X9119828Y4493144D01*
X9104378Y4462242D01*
X9085064Y4442929D01*
X9069614Y4433273D01*
X9062532Y4430697D01*
X9002017Y4393358D01*
X8987854Y4322543D01*
X9008133Y4225976D01*
X9068970Y4193788D01*
X9142289Y4205232D01*
X9209456Y4239567D01*
X9270472Y4296792D01*
X9318755Y4369324D01*
X9347725Y4449582D01*
X9357382Y4537564D01*
X9347725Y4632200D01*
X9318755Y4715247D01*
X9270472Y4786706D01*
X9207454Y4841427D01*
X9134278Y4874260D01*
X9050944Y4885204D01*
X8989142Y4876513D01*
X8937639Y4850440D01*
X8868112Y4778337D01*
X8804056Y4844968D01*
X8709742Y4867178D01*
X8640644Y4857235D01*
X8575837Y4827407D01*
X8515322Y4777693D01*
X8466681Y4711241D01*
X8437496Y4631198D01*
X8427768Y4537564D01*
X8208026Y4537564D01*
X8208026Y4885204D01*
X8208026Y5099796D01*
X9571974Y5099796D01*
X9571974Y4885204D01*
X9571974Y4537564D01*
X9571974Y3709667D01*
G37*
%TO.C,kibuzzard-69FA128B*%
G36*
X18655316Y6451676D02*
G01*
X18709215Y6387942D01*
X19104207Y5571204D01*
X19125452Y5459473D01*
X19038113Y5382363D01*
X18921661Y5359545D01*
X18844551Y5450031D01*
X18772162Y5599530D01*
X18503063Y5599530D01*
X18385037Y5599530D01*
X18312648Y5448458D01*
X18233964Y5361118D01*
X18119086Y5383937D01*
X18030960Y5460260D01*
X18051418Y5571204D01*
X18183589Y5845024D01*
X18503063Y5845024D01*
X18650989Y5845024D01*
X18577026Y5997671D01*
X18503063Y5845024D01*
X18183589Y5845024D01*
X18446411Y6389516D01*
X18501489Y6450103D01*
X18578599Y6472921D01*
X18655316Y6451676D01*
G37*
G36*
X21869157Y6460332D02*
G01*
X21913220Y6424137D01*
X21928170Y6380861D01*
X21930531Y6326569D01*
X21916171Y6234902D01*
X21873092Y6126712D01*
X21813095Y6014784D01*
X21747984Y5911905D01*
X21682873Y5808633D01*
X21622877Y5695525D01*
X21579798Y5586154D01*
X21565438Y5494094D01*
X21562290Y5444523D01*
X21545767Y5407542D01*
X21501704Y5380003D01*
X21420660Y5371347D01*
X21338041Y5379216D01*
X21294765Y5407542D01*
X21279029Y5445310D01*
X21275881Y5497241D01*
X21286897Y5611136D01*
X21319944Y5729359D01*
X21366171Y5839713D01*
X21416725Y5930003D01*
X21469443Y6009080D01*
X21522162Y6085797D01*
X21582748Y6183365D01*
X21268013Y6183365D01*
X21214508Y6186512D01*
X21171232Y6202249D01*
X21135824Y6246312D01*
X21124808Y6328143D01*
X21135824Y6409187D01*
X21168871Y6452463D01*
X21209787Y6468200D01*
X21260144Y6471347D01*
X21787326Y6471347D01*
X21869157Y6460332D01*
G37*
G36*
X21005996Y6470561D02*
G01*
X21048485Y6455611D01*
X21083893Y6411548D01*
X21094908Y6328143D01*
X21083893Y6246312D01*
X21047698Y6202249D01*
X21004422Y6187299D01*
X20950130Y6184938D01*
X20515795Y6184938D01*
X20515795Y6044881D01*
X20806926Y6044881D01*
X20858070Y6042520D01*
X20895838Y6029931D01*
X20925738Y5992163D01*
X20934393Y5920561D01*
X20925738Y5850532D01*
X20895052Y5814337D01*
X20855710Y5801748D01*
X20803778Y5799387D01*
X20515795Y5799387D01*
X20515795Y5659330D01*
X20951704Y5659330D01*
X21005996Y5656970D01*
X21048485Y5642020D01*
X21083893Y5597957D01*
X21094908Y5514552D01*
X21083893Y5432721D01*
X21047698Y5388658D01*
X21004422Y5373708D01*
X20950130Y5371347D01*
X20371017Y5371347D01*
X20289186Y5382363D01*
X20245123Y5418558D01*
X20230173Y5461834D01*
X20227813Y5516126D01*
X20227813Y6329716D01*
X20260073Y6442234D01*
X20375738Y6472921D01*
X20951704Y6472921D01*
X21005996Y6470561D01*
G37*
G36*
X19705352Y6462889D02*
G01*
X19806067Y6432792D01*
X19898914Y6382631D01*
X19983893Y6312406D01*
X20054807Y6228214D01*
X20105459Y6136154D01*
X20135851Y6036226D01*
X20145981Y5928429D01*
X20135851Y5817731D01*
X20105459Y5715392D01*
X20054807Y5621414D01*
X19983893Y5535797D01*
X19898619Y5464539D01*
X19804887Y5413640D01*
X19702696Y5383101D01*
X19592047Y5372921D01*
X19469300Y5372921D01*
X19324522Y5372921D01*
X19245052Y5383937D01*
X19201775Y5417771D01*
X19185252Y5461834D01*
X19181318Y5517699D01*
X19181318Y5660904D01*
X19469300Y5660904D01*
X19596768Y5660904D01*
X19696303Y5679985D01*
X19780888Y5737227D01*
X19838721Y5821616D01*
X19857999Y5922134D01*
X19838721Y6022849D01*
X19780888Y6107828D01*
X19695910Y6165661D01*
X19595195Y6184938D01*
X19469300Y6184938D01*
X19469300Y5660904D01*
X19181318Y5660904D01*
X19181318Y6331290D01*
X19183678Y6384008D01*
X19198628Y6427284D01*
X19242691Y6462692D01*
X19326096Y6472921D01*
X19596768Y6472921D01*
X19705352Y6462889D01*
G37*
G36*
X23346840Y6474495D02*
G01*
X23401132Y6471347D01*
X23443621Y6456397D01*
X23479029Y6412334D01*
X23490044Y6326569D01*
X23479815Y6247885D01*
X23445981Y6206183D01*
X23405066Y6192020D01*
X23354708Y6189659D01*
X23112362Y6189659D01*
X23101346Y6106254D01*
X23128099Y6109402D01*
X23135967Y6109402D01*
X23231612Y6097075D01*
X23319213Y6060093D01*
X23398771Y5998458D01*
X23461718Y5920561D01*
X23499486Y5834795D01*
X23512076Y5741161D01*
X23499836Y5636862D01*
X23463117Y5544277D01*
X23401918Y5463407D01*
X23322710Y5400898D01*
X23231961Y5363392D01*
X23129672Y5350890D01*
X23044694Y5357774D01*
X22966010Y5378429D01*
X22859000Y5432721D01*
X22825953Y5461047D01*
X22766153Y5557041D01*
X22824379Y5664051D01*
X22921947Y5717556D01*
X23028957Y5665625D01*
X23120230Y5640446D01*
X23195767Y5664051D01*
X23222519Y5730146D01*
X23194193Y5795453D01*
X23124951Y5821419D01*
X23063578Y5799387D01*
X22975452Y5761619D01*
X22873163Y5793093D01*
X22803134Y5840303D01*
X22783464Y5885940D01*
X22841690Y6332864D01*
X22849558Y6376927D01*
X22867655Y6420203D01*
X22911718Y6461905D01*
X22986468Y6476068D01*
X23346840Y6474495D01*
G37*
G36*
X22452379Y6476855D02*
G01*
X22550210Y6436726D01*
X22630030Y6369845D01*
X22689043Y6279534D01*
X22724451Y6169114D01*
X22736253Y6038586D01*
X22729518Y5923015D01*
X22709312Y5816761D01*
X22675635Y5719822D01*
X22628488Y5632200D01*
X22567870Y5553894D01*
X22496173Y5487611D01*
X22415790Y5436057D01*
X22326720Y5399233D01*
X22228963Y5377138D01*
X22122519Y5369774D01*
X22072948Y5372921D01*
X22032033Y5388658D01*
X21998986Y5432721D01*
X21988757Y5514552D01*
X21999773Y5596383D01*
X22035967Y5640446D01*
X22080030Y5655396D01*
X22135109Y5657757D01*
X22252960Y5675417D01*
X22344233Y5728397D01*
X22408928Y5816698D01*
X22334966Y5804138D01*
X22325524Y5802535D01*
X22232065Y5813376D01*
X22146824Y5845898D01*
X22069801Y5900103D01*
X22009040Y5968820D01*
X21972583Y6044881D01*
X21960431Y6128286D01*
X21961612Y6137728D01*
X22243692Y6137728D01*
X22268871Y6081862D01*
X22334966Y6060618D01*
X22412076Y6080289D01*
X22440402Y6134581D01*
X22417584Y6200675D01*
X22342834Y6221133D01*
X22267298Y6201462D01*
X22243692Y6137728D01*
X21961612Y6137728D01*
X21972495Y6224717D01*
X22008690Y6310483D01*
X22069014Y6385582D01*
X22146999Y6443721D01*
X22236174Y6478604D01*
X22336539Y6490231D01*
X22452379Y6476855D01*
G37*
G36*
X24090752Y6476768D02*
G01*
X24188582Y6441098D01*
X24269801Y6381648D01*
X24330563Y6307685D01*
X24367019Y6228477D01*
X24379172Y6144023D01*
X24352026Y6028751D01*
X24270588Y5950460D01*
X24358714Y5865482D01*
X24390581Y5802535D01*
X24401203Y5726998D01*
X24387827Y5625146D01*
X24347698Y5535709D01*
X24280817Y5458686D01*
X24193478Y5399674D01*
X24091976Y5364266D01*
X23976310Y5352463D01*
X23868776Y5364266D01*
X23770683Y5399674D01*
X23682033Y5458686D01*
X23612092Y5533261D01*
X23570127Y5615355D01*
X23556139Y5704967D01*
X23595481Y5779323D01*
X23713506Y5804108D01*
X23800059Y5786798D01*
X23845695Y5712835D01*
X23848843Y5704180D01*
X23860645Y5685296D01*
X23884250Y5661691D01*
X23922019Y5642807D01*
X23977884Y5634151D01*
X24076239Y5658543D01*
X24113220Y5723851D01*
X24082927Y5792306D01*
X23992047Y5815124D01*
X23948771Y5815124D01*
X23912577Y5822206D01*
X23877169Y5841877D01*
X23858285Y5882792D01*
X23848843Y5952034D01*
X23859072Y6030718D01*
X23892119Y6071633D01*
X23932247Y6085010D01*
X23982605Y6087370D01*
X23993621Y6087370D01*
X24066797Y6097599D01*
X24089615Y6137728D01*
X24063649Y6192020D01*
X23992047Y6211691D01*
X23924379Y6195954D01*
X23878742Y6148744D01*
X23830833Y6083873D01*
X23764738Y6065514D01*
X23680459Y6093665D01*
X23602562Y6180217D01*
X23625381Y6288801D01*
X23627741Y6294309D01*
X23636396Y6311619D01*
X23652133Y6337585D01*
X23677312Y6369058D01*
X23711933Y6402892D01*
X23758356Y6435153D01*
X23816582Y6462692D01*
X23888971Y6481576D01*
X23976310Y6488658D01*
X24090752Y6476768D01*
G37*
%TO.C,kibuzzard-689A66F4*%
G36*
X14648755Y3696797D02*
G01*
X14648755Y2863750D01*
X14648755Y2528986D01*
X14648755Y1885209D01*
X13291245Y1885209D01*
X13291245Y2528986D01*
X13291245Y2852162D01*
X13505837Y2852162D01*
X13514492Y2769616D01*
X13540458Y2697083D01*
X13583734Y2634565D01*
X13640172Y2586640D01*
X13705622Y2557884D01*
X13780086Y2548299D01*
X13863777Y2558600D01*
X13933305Y2589501D01*
X13988670Y2641003D01*
X14029871Y2713106D01*
X14047414Y2761872D01*
X14063991Y2823192D01*
X14094249Y2924265D01*
X14134163Y2957741D01*
X14194034Y2934565D01*
X14212704Y2858600D01*
X14200472Y2807741D01*
X14153476Y2755595D01*
X14106552Y2697513D01*
X14097969Y2641719D01*
X14127725Y2588214D01*
X14210129Y2534136D01*
X14293820Y2566325D01*
X14302833Y2574050D01*
X14320858Y2588214D01*
X14343391Y2610746D01*
X14368498Y2641647D01*
X14392961Y2681561D01*
X14414206Y2731132D01*
X14428369Y2791647D01*
X14434163Y2863750D01*
X14424506Y2949372D01*
X14391674Y3037570D01*
X14334378Y3116754D01*
X14247468Y3172763D01*
X14191781Y3189179D01*
X14130300Y3194651D01*
X14034056Y3182580D01*
X13964206Y3146368D01*
X13915279Y3089877D01*
X13881803Y3016969D01*
X13861845Y2934565D01*
X13845751Y2856025D01*
X13823219Y2805166D01*
X13781373Y2782634D01*
X13742103Y2803235D01*
X13726009Y2850874D01*
X13730515Y2893364D01*
X13740172Y2918471D01*
X13754979Y2936497D01*
X13767210Y2951304D01*
X13791030Y3037570D01*
X13728584Y3113535D01*
X13649399Y3144437D01*
X13583090Y3098085D01*
X13540172Y3031275D01*
X13514421Y2949301D01*
X13505837Y2852162D01*
X13291245Y2852162D01*
X13291245Y3700660D01*
X13510987Y3700660D01*
X13514850Y3643847D01*
X13526438Y3584136D01*
X13546878Y3522334D01*
X13577296Y3459244D01*
X13616567Y3398889D01*
X13663562Y3345295D01*
X13721341Y3299587D01*
X13792961Y3262892D01*
X13875365Y3238750D01*
X13965494Y3230703D01*
X14059163Y3238911D01*
X14144464Y3263535D01*
X14218337Y3300714D01*
X14277725Y3346583D01*
X14326009Y3400177D01*
X14366567Y3460531D01*
X14397951Y3523299D01*
X14418712Y3584136D01*
X14430300Y3642237D01*
X14434163Y3696797D01*
X14426152Y3780059D01*
X14402117Y3859887D01*
X14362060Y3936282D01*
X14322790Y3989072D01*
X14275794Y4007098D01*
X14201116Y3978771D01*
X14146073Y3932420D01*
X14127725Y3888643D01*
X14153476Y3824265D01*
X14185343Y3759565D01*
X14195966Y3691647D01*
X14175365Y3593793D01*
X14146556Y3547280D01*
X14101330Y3505595D01*
X14042264Y3476143D01*
X13971931Y3466325D01*
X13917210Y3471797D01*
X13868927Y3488214D01*
X13798755Y3545510D01*
X13760773Y3618256D01*
X13747897Y3691647D01*
X13749185Y3722548D01*
X13753691Y3748299D01*
X13758841Y3768900D01*
X13765279Y3786282D01*
X13772361Y3798514D01*
X13779442Y3809458D01*
X13785236Y3817827D01*
X13814850Y3887355D01*
X13797468Y3931776D01*
X13745322Y3980059D01*
X13673219Y4008385D01*
X13634592Y3996153D01*
X13607554Y3972334D01*
X13583090Y3937570D01*
X13543033Y3856311D01*
X13518999Y3777341D01*
X13510987Y3700660D01*
X13291245Y3700660D01*
X13291245Y4207956D01*
X13520000Y4207956D01*
X13529013Y4139716D01*
X13558627Y4103664D01*
X13594034Y4091432D01*
X13637167Y4089501D01*
X14302833Y4089501D01*
X14347253Y4091432D01*
X14382661Y4103664D01*
X14412275Y4139716D01*
X14421288Y4206668D01*
X14421288Y4637999D01*
X14419356Y4674694D01*
X14408412Y4705595D01*
X14377511Y4730703D01*
X14320858Y4738428D01*
X14262918Y4730703D01*
X14232661Y4705595D01*
X14222361Y4675982D01*
X14220429Y4639286D01*
X14220429Y4325123D01*
X13638455Y4325123D01*
X13594034Y4323192D01*
X13558627Y4310960D01*
X13529013Y4274909D01*
X13520000Y4207956D01*
X13291245Y4207956D01*
X13291245Y4738428D01*
X13291245Y4738535D01*
X13294513Y4805065D01*
X13304287Y4870954D01*
X13320472Y4935568D01*
X13342912Y4998284D01*
X13371391Y5058498D01*
X13405636Y5115632D01*
X13445315Y5169133D01*
X13490047Y5218488D01*
X13539402Y5263220D01*
X13592904Y5302900D01*
X13650037Y5337144D01*
X13710252Y5365624D01*
X13772968Y5388064D01*
X13837581Y5404249D01*
X13903470Y5414022D01*
X13970000Y5417291D01*
X14036530Y5414022D01*
X14102419Y5404249D01*
X14167032Y5388064D01*
X14229748Y5365624D01*
X14289963Y5337144D01*
X14347096Y5302900D01*
X14400598Y5263220D01*
X14449953Y5218488D01*
X14494685Y5169133D01*
X14534364Y5115632D01*
X14568609Y5058498D01*
X14597088Y4998284D01*
X14619528Y4935568D01*
X14635713Y4870954D01*
X14645487Y4805065D01*
X14648755Y4738535D01*
X14648755Y4738428D01*
X14648755Y4206668D01*
X14648755Y3696797D01*
G37*
D12*
%TO.C,R11*%
X17400000Y4281141D02*
X17400000Y3973859D01*
X18160000Y4281141D02*
X18160000Y3973859D01*
D10*
%TO.C,kibuzzard-69F8FC56*%
G36*
X16899362Y24657182D02*
G01*
X17564598Y24657182D01*
X17922251Y24657182D01*
X17922251Y23602818D01*
X17564598Y23602818D01*
X16742709Y23602818D01*
X16742530Y23602818D01*
X16639682Y23612948D01*
X16540787Y23642948D01*
X16449644Y23691664D01*
X16369757Y23757226D01*
X16304195Y23837114D01*
X16255478Y23928256D01*
X16225478Y24027152D01*
X16215349Y24130000D01*
X16742709Y24130000D01*
X16755585Y24031288D01*
X16801722Y23978176D01*
X16897216Y23960472D01*
X17407945Y23960472D01*
X17510949Y23979785D01*
X17551722Y24031288D01*
X17564598Y24127854D01*
X17553868Y24226567D01*
X17506121Y24281288D01*
X17410091Y24299528D01*
X16899362Y24299528D01*
X16792065Y24280215D01*
X16754512Y24227639D01*
X16742709Y24130000D01*
X16215349Y24130000D01*
X16225478Y24232848D01*
X16255478Y24331744D01*
X16304195Y24422886D01*
X16369757Y24502774D01*
X16449644Y24568336D01*
X16540787Y24617052D01*
X16639682Y24647052D01*
X16742530Y24657182D01*
X16742709Y24657182D01*
X16899362Y24657182D01*
G37*
D12*
%TO.C,C6*%
X21865000Y18942164D02*
X21865000Y19157836D01*
X22585000Y18942164D02*
X22585000Y19157836D01*
D10*
%TO.C,kibuzzard-689A66E2*%
G36*
X6433530Y4898782D02*
G01*
X6502575Y4851465D01*
X6549410Y4782259D01*
X6565021Y4700821D01*
X6565021Y4596529D01*
X6136266Y4596529D01*
X6136266Y4699533D01*
X6152039Y4781937D01*
X6199356Y4851465D01*
X6268884Y4898782D01*
X6351288Y4914555D01*
X6433530Y4898782D01*
G37*
G36*
X7029399Y3614126D02*
G01*
X7029399Y3034726D01*
X7029399Y2581508D01*
X7029399Y1937731D01*
X5670601Y1937731D01*
X5670601Y2581508D01*
X5670601Y3043739D01*
X5885193Y3043739D01*
X5893522Y2951880D01*
X5918509Y2866862D01*
X5960153Y2788683D01*
X6018455Y2717344D01*
X6088425Y2657916D01*
X6165075Y2615467D01*
X6248404Y2589997D01*
X6338412Y2581508D01*
X6432806Y2589877D01*
X6520279Y2614984D01*
X6600832Y2656829D01*
X6674464Y2715413D01*
X6735864Y2785585D01*
X6779721Y2862194D01*
X6806035Y2945241D01*
X6814807Y3034726D01*
X6809227Y3133439D01*
X6792489Y3218417D01*
X6764592Y3289662D01*
X6734818Y3336980D01*
X6699571Y3373353D01*
X6625536Y3404254D01*
X6361588Y3404254D01*
X6329399Y3403611D01*
X6301073Y3397817D01*
X6275322Y3382366D01*
X6258584Y3352108D01*
X6249571Y3302538D01*
X6249571Y3077216D01*
X6251502Y3042452D01*
X6261803Y3014126D01*
X6292060Y2990306D01*
X6348712Y2983224D01*
X6406652Y2989662D01*
X6436910Y3011550D01*
X6447210Y3038589D01*
X6449142Y3073353D01*
X6449142Y3168632D01*
X6559871Y3168632D01*
X6572425Y3113911D01*
X6576609Y3039877D01*
X6558906Y2956508D01*
X6505794Y2884083D01*
X6429185Y2833868D01*
X6340987Y2817130D01*
X6255526Y2833224D01*
X6184549Y2881508D01*
X6136749Y2952645D01*
X6120815Y3037302D01*
X6129828Y3116808D01*
X6156867Y3182795D01*
X6186481Y3252323D01*
X6169421Y3299962D01*
X6118240Y3347602D01*
X6046137Y3377216D01*
X6008798Y3364984D01*
X5981760Y3341164D01*
X5956009Y3305113D01*
X5926234Y3249909D01*
X5903863Y3182151D01*
X5889861Y3110531D01*
X5885193Y3043739D01*
X5670601Y3043739D01*
X5670601Y4171636D01*
X5901931Y4171636D01*
X5910944Y4104683D01*
X5938627Y4068632D01*
X5972747Y4055756D01*
X6015236Y4053181D01*
X6384764Y4053181D01*
X5952146Y3731293D01*
X5925751Y3708117D01*
X5909657Y3675284D01*
X5901931Y3616701D01*
X5910300Y3549104D01*
X5937983Y3513696D01*
X5972103Y3500821D01*
X6015236Y3498246D01*
X6683476Y3498246D01*
X6728541Y3500821D01*
X6763948Y3513053D01*
X6792918Y3547817D01*
X6801931Y3614126D01*
X6792918Y3682366D01*
X6763948Y3718417D01*
X6729185Y3730649D01*
X6684764Y3732580D01*
X6326824Y3732580D01*
X6767167Y4066057D01*
X6794850Y4104040D01*
X6801931Y4170349D01*
X6792918Y4238589D01*
X6763948Y4274641D01*
X6729185Y4286872D01*
X6684764Y4288804D01*
X6020386Y4288804D01*
X5975966Y4286872D01*
X5940558Y4274641D01*
X5910944Y4238589D01*
X5901931Y4171636D01*
X5670601Y4171636D01*
X5670601Y4700821D01*
X5900644Y4700821D01*
X5900644Y4479362D01*
X5909013Y4411121D01*
X5937983Y4375070D01*
X5973391Y4362838D01*
X6016524Y4360907D01*
X6682189Y4360907D01*
X6727897Y4364126D01*
X6763948Y4377645D01*
X6791631Y4413053D01*
X6800644Y4478074D01*
X6800644Y4696958D01*
X6792315Y4787489D01*
X6767328Y4871100D01*
X6725684Y4947790D01*
X6667382Y5017559D01*
X6597331Y5075579D01*
X6520440Y5117023D01*
X6436709Y5141888D01*
X6346137Y5150177D01*
X6257940Y5141888D01*
X6176180Y5117023D01*
X6100858Y5075579D01*
X6031974Y5017559D01*
X5974517Y4948031D01*
X5933476Y4872065D01*
X5908852Y4789662D01*
X5900644Y4700821D01*
X5670601Y4700821D01*
X5670601Y5150177D01*
X5670601Y5364769D01*
X7029399Y5364769D01*
X7029399Y5150177D01*
X7029399Y4478074D01*
X7029399Y3614126D01*
G37*
D12*
%TO.C,R8*%
X17717500Y16028641D02*
X17717500Y15721359D01*
X18477500Y16028641D02*
X18477500Y15721359D01*
%TO.C,R9*%
X6922500Y16028641D02*
X6922500Y15721359D01*
X7682500Y16028641D02*
X7682500Y15721359D01*
D10*
%TO.C,kibuzzard-69F8FC56*%
G36*
X8684118Y24647052D02*
G01*
X8783013Y24617052D01*
X8874156Y24568336D01*
X8954043Y24502774D01*
X9019605Y24422886D01*
X9068322Y24331744D01*
X9098322Y24232848D01*
X9108451Y24130000D01*
X9098322Y24027152D01*
X9068322Y23928256D01*
X9019605Y23837114D01*
X8954043Y23757226D01*
X8874156Y23691664D01*
X8783013Y23642948D01*
X8684118Y23612948D01*
X8581270Y23602818D01*
X8581091Y23602818D01*
X8424438Y23602818D01*
X7759202Y23602818D01*
X7401549Y23602818D01*
X7401549Y24132146D01*
X7759202Y24132146D01*
X7769932Y24033433D01*
X7817679Y23978712D01*
X7913709Y23960472D01*
X8424438Y23960472D01*
X8531735Y23979785D01*
X8569288Y24032361D01*
X8581091Y24130000D01*
X8568215Y24228712D01*
X8522078Y24281824D01*
X8426584Y24299528D01*
X7915855Y24299528D01*
X7812851Y24280215D01*
X7772078Y24228712D01*
X7759202Y24132146D01*
X7401549Y24132146D01*
X7401549Y24657182D01*
X7759202Y24657182D01*
X8581091Y24657182D01*
X8581270Y24657182D01*
X8684118Y24647052D01*
G37*
%TO.C,G\u002A\u002A\u002A*%
G36*
X21591342Y17310932D02*
G01*
X21622041Y17300835D01*
X21649883Y17282959D01*
X21657157Y17276737D01*
X21682041Y17249280D01*
X21699630Y17217766D01*
X21710258Y17181229D01*
X21714257Y17138703D01*
X21713757Y17112502D01*
X21712172Y17089374D01*
X21709638Y17072160D01*
X21705193Y17057110D01*
X21697876Y17040473D01*
X21692595Y17029906D01*
X21671876Y16996999D01*
X21647135Y16972528D01*
X21617385Y16955837D01*
X21581638Y16946271D01*
X21563119Y16944101D01*
X21543158Y16944245D01*
X21522590Y16946934D01*
X21516459Y16948396D01*
X21479524Y16963308D01*
X21449182Y16985214D01*
X21425583Y17013905D01*
X21408877Y17049174D01*
X21399216Y17090811D01*
X21397084Y17113777D01*
X21397822Y17160256D01*
X21405449Y17200501D01*
X21420257Y17235338D01*
X21442538Y17265593D01*
X21455043Y17277901D01*
X21482396Y17297596D01*
X21512649Y17309382D01*
X21547812Y17313985D01*
X21555454Y17314108D01*
X21591342Y17310932D01*
G37*
G36*
X22997437Y17780361D02*
G01*
X23127958Y17780355D01*
X23249479Y17780343D01*
X23362332Y17780322D01*
X23466848Y17780292D01*
X23563360Y17780249D01*
X23652198Y17780191D01*
X23733695Y17780117D01*
X23808182Y17780024D01*
X23875992Y17779911D01*
X23937455Y17779776D01*
X23992903Y17779616D01*
X24042668Y17779429D01*
X24087082Y17779214D01*
X24126476Y17778967D01*
X24161183Y17778689D01*
X24191533Y17778375D01*
X24217859Y17778025D01*
X24240492Y17777636D01*
X24259764Y17777206D01*
X24276007Y17776733D01*
X24289552Y17776216D01*
X24300731Y17775651D01*
X24309876Y17775038D01*
X24317318Y17774373D01*
X24323389Y17773656D01*
X24328421Y17772883D01*
X24332745Y17772054D01*
X24336070Y17771312D01*
X24414581Y17748292D01*
X24487987Y17717324D01*
X24555913Y17678696D01*
X24617982Y17632694D01*
X24673820Y17579605D01*
X24723052Y17519718D01*
X24765302Y17453319D01*
X24774916Y17435374D01*
X24805111Y17368803D01*
X24826638Y17302088D01*
X24839965Y17233278D01*
X24845562Y17160418D01*
X24845809Y17140387D01*
X24841473Y17060085D01*
X24828409Y16983891D01*
X24806529Y16911590D01*
X24775748Y16842968D01*
X24735980Y16777812D01*
X24687139Y16715906D01*
X24666272Y16693284D01*
X24611662Y16641899D01*
X24554008Y16598665D01*
X24492142Y16562932D01*
X24424899Y16534053D01*
X24351112Y16511378D01*
X24329784Y16506205D01*
X24282922Y16495428D01*
X23122117Y16493981D01*
X21961312Y16492534D01*
X21961312Y16997538D01*
X21961312Y17500126D01*
X22000902Y17500126D01*
X22134512Y17131796D01*
X22268122Y16763465D01*
X22389236Y16763382D01*
X22510350Y16763299D01*
X22579610Y16986763D01*
X22593473Y17031360D01*
X22606542Y17073143D01*
X22618525Y17111202D01*
X22629134Y17144629D01*
X22638078Y17172516D01*
X22645068Y17193954D01*
X22649814Y17208036D01*
X22652026Y17213851D01*
X22652077Y17213924D01*
X22654079Y17210191D01*
X22658599Y17198074D01*
X22665355Y17178437D01*
X22674066Y17152145D01*
X22684448Y17120060D01*
X22696220Y17083049D01*
X22709100Y17041974D01*
X22722805Y16997701D01*
X22725028Y16990466D01*
X22794773Y16763311D01*
X22915593Y16763305D01*
X23036414Y16763299D01*
X23170463Y17129798D01*
X23171605Y17132921D01*
X23338334Y17132921D01*
X23338334Y16763299D01*
X23459125Y16763299D01*
X23579916Y16763299D01*
X23579916Y17132921D01*
X23579916Y17502542D01*
X23628233Y17502542D01*
X23628233Y17132921D01*
X23628233Y16763299D01*
X23749024Y16763299D01*
X23869815Y16763299D01*
X23869815Y17130505D01*
X23920561Y17130505D01*
X23921029Y17091805D01*
X23922756Y17060315D01*
X23926246Y17033612D01*
X23932004Y17009271D01*
X23940534Y16984868D01*
X23952340Y16957980D01*
X23959624Y16942861D01*
X23988004Y16895788D01*
X24023717Y16854894D01*
X24066300Y16820649D01*
X24099515Y16801105D01*
X24143957Y16780705D01*
X24186290Y16766768D01*
X24229701Y16758565D01*
X24277376Y16755370D01*
X24299832Y16755352D01*
X24345733Y16756052D01*
X24347039Y16853297D01*
X24348345Y16950542D01*
X24305633Y16952584D01*
X24271100Y16956692D01*
X24243309Y16965888D01*
X24220325Y16981011D01*
X24205857Y16995812D01*
X24185343Y17026807D01*
X24171103Y17062369D01*
X24163083Y17100754D01*
X24161229Y17140214D01*
X24165489Y17179002D01*
X24175809Y17215372D01*
X24192136Y17247576D01*
X24214321Y17273781D01*
X24237794Y17291815D01*
X24261865Y17302926D01*
X24289656Y17308259D01*
X24310802Y17309170D01*
X24348345Y17309276D01*
X24347039Y17409533D01*
X24345733Y17509789D01*
X24285338Y17509013D01*
X24237246Y17506564D01*
X24195008Y17500057D01*
X24155395Y17488746D01*
X24115183Y17471887D01*
X24106566Y17467675D01*
X24067736Y17443953D01*
X24030497Y17413136D01*
X23997243Y17377581D01*
X23970367Y17339647D01*
X23962740Y17325913D01*
X23947538Y17294269D01*
X23936325Y17265421D01*
X23928561Y17236868D01*
X23923706Y17206109D01*
X23921220Y17170644D01*
X23920561Y17130505D01*
X23869815Y17130505D01*
X23869815Y17132921D01*
X23869815Y17502542D01*
X23749024Y17502542D01*
X23628233Y17502542D01*
X23579916Y17502542D01*
X23459125Y17502542D01*
X23338334Y17502542D01*
X23338334Y17132921D01*
X23171605Y17132921D01*
X23191252Y17186673D01*
X23211054Y17240923D01*
X23229621Y17291862D01*
X23246706Y17338809D01*
X23262060Y17381079D01*
X23275437Y17417989D01*
X23286587Y17448856D01*
X23295263Y17472997D01*
X23301218Y17489727D01*
X23304203Y17498363D01*
X23304512Y17499420D01*
X23299899Y17500285D01*
X23286935Y17501058D01*
X23266931Y17501704D01*
X23241201Y17502188D01*
X23211054Y17502476D01*
X23187051Y17502542D01*
X23069591Y17502542D01*
X23000375Y17266999D01*
X22986733Y17220669D01*
X22973764Y17176806D01*
X22961751Y17136352D01*
X22950975Y17100250D01*
X22941719Y17069442D01*
X22934266Y17044870D01*
X22928897Y17027476D01*
X22925895Y17018202D01*
X22925574Y17017330D01*
X22924503Y17014914D01*
X22923349Y17013526D01*
X22921939Y17013708D01*
X22920102Y17016004D01*
X22917667Y17020958D01*
X22914460Y17029113D01*
X22910310Y17041012D01*
X22905046Y17057199D01*
X22898495Y17078217D01*
X22890485Y17104609D01*
X22880845Y17136919D01*
X22869402Y17175690D01*
X22855985Y17221466D01*
X22840422Y17274790D01*
X22822541Y17336205D01*
X22802169Y17406255D01*
X22798056Y17420404D01*
X22774879Y17500126D01*
X22658313Y17501419D01*
X22541747Y17502712D01*
X22529704Y17462766D01*
X22525799Y17449599D01*
X22519574Y17428338D01*
X22511375Y17400175D01*
X22501548Y17366304D01*
X22490438Y17327919D01*
X22478392Y17286214D01*
X22465757Y17242381D01*
X22458588Y17217474D01*
X22446219Y17174639D01*
X22434590Y17134669D01*
X22423986Y17098523D01*
X22414691Y17067160D01*
X22406991Y17041536D01*
X22401170Y17022609D01*
X22397515Y17011337D01*
X22396390Y17008507D01*
X22394475Y17012299D01*
X22390124Y17024529D01*
X22383602Y17044358D01*
X22375169Y17070945D01*
X22365088Y17103451D01*
X22353621Y17141035D01*
X22341030Y17182856D01*
X22327577Y17228074D01*
X22321547Y17248508D01*
X22307749Y17295273D01*
X22294700Y17339287D01*
X22282667Y17379671D01*
X22271916Y17415541D01*
X22262711Y17446017D01*
X22255319Y17470218D01*
X22250004Y17487261D01*
X22247032Y17496266D01*
X22246559Y17497421D01*
X22241402Y17499230D01*
X22228232Y17500536D01*
X22206669Y17501351D01*
X22176333Y17501688D01*
X22136847Y17501558D01*
X22122096Y17501419D01*
X22000902Y17500126D01*
X21961312Y17500126D01*
X21961312Y17502542D01*
X21838105Y17502542D01*
X21714898Y17502542D01*
X21714898Y17455598D01*
X21714898Y17408655D01*
X21689532Y17433383D01*
X21651825Y17464584D01*
X21610033Y17488034D01*
X21584443Y17498180D01*
X21559550Y17504291D01*
X21528191Y17508197D01*
X21493318Y17509859D01*
X21457883Y17509236D01*
X21424838Y17506287D01*
X21397135Y17500971D01*
X21396427Y17500777D01*
X21343811Y17481398D01*
X21296397Y17453981D01*
X21254644Y17418905D01*
X21219011Y17376552D01*
X21191791Y17331018D01*
X21173623Y17286243D01*
X21160434Y17235552D01*
X21152631Y17181541D01*
X21150623Y17126810D01*
X21153287Y17085768D01*
X21158527Y17046925D01*
X21165038Y17014427D01*
X21173749Y16984959D01*
X21185586Y16955210D01*
X21196248Y16932407D01*
X21223557Y16886560D01*
X21257547Y16846254D01*
X21297011Y16812715D01*
X21338029Y16788448D01*
X21390709Y16768158D01*
X21446111Y16756672D01*
X21496255Y16753636D01*
X21549203Y16757863D01*
X21597715Y16770466D01*
X21641481Y16791328D01*
X21680192Y16820329D01*
X21686283Y16826095D01*
X21714898Y16854095D01*
X21714898Y16673411D01*
X21714898Y16492727D01*
X21597731Y16493539D01*
X21563862Y16493840D01*
X21532187Y16494246D01*
X21504323Y16494727D01*
X21481889Y16495252D01*
X21466503Y16495790D01*
X21461236Y16496115D01*
X21385230Y16507703D01*
X21311762Y16528045D01*
X21241566Y16556596D01*
X21175374Y16592811D01*
X21113917Y16636145D01*
X21057930Y16686054D01*
X21008144Y16741991D01*
X20965290Y16803413D01*
X20930103Y16869775D01*
X20917005Y16901001D01*
X20893310Y16973993D01*
X20878031Y17047971D01*
X20871383Y17121485D01*
X20873558Y17192846D01*
X20885606Y17273063D01*
X20906120Y17348645D01*
X20935179Y17419759D01*
X20972864Y17486568D01*
X21019252Y17549239D01*
X21071160Y17604807D01*
X21129961Y17655394D01*
X21192921Y17697593D01*
X21260770Y17731806D01*
X21334237Y17758436D01*
X21365695Y17767140D01*
X21417751Y17780362D01*
X22857584Y17780362D01*
X22997437Y17780361D01*
G37*
D12*
%TO.C,R6*%
X17257500Y8335242D02*
X17257500Y8809758D01*
X18302500Y8335242D02*
X18302500Y8809758D01*
D10*
%TO.C,kibuzzard-69FA12A1*%
G36*
X23559839Y7555075D02*
G01*
X23616491Y7540912D01*
X23667636Y7505504D01*
X23687307Y7445705D01*
X23678652Y7371938D01*
X23652686Y7311155D01*
X23564560Y7256863D01*
X23503974Y7268666D01*
X23465418Y7280469D01*
X23387521Y7257650D01*
X23356835Y7200211D01*
X23356835Y6893344D01*
X23354474Y6839839D01*
X23339524Y6798137D01*
X23295461Y6762729D01*
X23212057Y6751713D01*
X23131012Y6762729D01*
X23087736Y6798923D01*
X23072786Y6842200D01*
X23070426Y6896491D01*
X23070426Y7409510D01*
X23072786Y7463015D01*
X23087736Y7504717D01*
X23131012Y7540125D01*
X23213630Y7551141D01*
X23304903Y7535011D01*
X23348966Y7486620D01*
X23428437Y7540912D01*
X23512629Y7559009D01*
X23559839Y7555075D01*
G37*
G36*
X22693180Y7556561D02*
G01*
X22792060Y7516170D01*
X22879224Y7448852D01*
X22946979Y7362125D01*
X22987633Y7263508D01*
X23001184Y7153001D01*
X22986758Y7037073D01*
X22943482Y6936882D01*
X22871356Y6852428D01*
X22781918Y6788607D01*
X22686711Y6750314D01*
X22585733Y6737550D01*
X22582586Y6737952D01*
X22483794Y6750577D01*
X22387800Y6789656D01*
X22297750Y6854789D01*
X22225186Y6939855D01*
X22181648Y7038734D01*
X22167135Y7151427D01*
X22167332Y7153001D01*
X22455118Y7153001D01*
X22496034Y7057006D01*
X22582586Y7025533D01*
X22670712Y7057006D01*
X22713201Y7154574D01*
X22677006Y7247421D01*
X22581012Y7282042D01*
X22492099Y7245061D01*
X22455118Y7153001D01*
X22167332Y7153001D01*
X22180774Y7260448D01*
X22221689Y7358803D01*
X22289882Y7446491D01*
X22376959Y7515121D01*
X22474527Y7556299D01*
X22582586Y7570025D01*
X22693180Y7556561D01*
G37*
G36*
X21156485Y7538726D02*
G01*
X21235169Y7501483D01*
X21298466Y7439410D01*
X21344802Y7357928D01*
X21372603Y7262459D01*
X21381871Y7153001D01*
X21381871Y6894918D01*
X21379510Y6842200D01*
X21364560Y6799710D01*
X21321284Y6764303D01*
X21238666Y6753287D01*
X21155261Y6764303D01*
X21111198Y6800497D01*
X21096248Y6843773D01*
X21093888Y6896491D01*
X21093888Y7153001D01*
X21064775Y7236406D01*
X20982157Y7266305D01*
X20898752Y7235619D01*
X20867278Y7153001D01*
X20867278Y6894918D01*
X20864918Y6842200D01*
X20849968Y6799710D01*
X20805905Y6764303D01*
X20724074Y6753287D01*
X20643029Y6764303D01*
X20599753Y6799710D01*
X20584803Y6842200D01*
X20582443Y6896491D01*
X20582443Y7414231D01*
X20585590Y7466162D01*
X20600540Y7507078D01*
X20643816Y7540912D01*
X20725647Y7551141D01*
X20799610Y7541699D01*
X20842099Y7515733D01*
X20859410Y7485833D01*
X20864131Y7453573D01*
X20948323Y7521241D01*
X21062414Y7551141D01*
X21156485Y7538726D01*
G37*
G36*
X20256429Y7557086D02*
G01*
X20346391Y7522990D01*
X20417994Y7466162D01*
X20488219Y7361119D01*
X20511627Y7250569D01*
X20500808Y7172475D01*
X20468351Y7114446D01*
X20418190Y7078448D01*
X20354260Y7066448D01*
X20019067Y7066448D01*
X20066277Y7006649D01*
X20159124Y6984617D01*
X20286592Y7005075D01*
X20358981Y7025533D01*
X20410912Y7006649D01*
X20453401Y6949996D01*
X20473859Y6877607D01*
X20453401Y6814955D01*
X20392028Y6770204D01*
X20289739Y6743353D01*
X20146534Y6734403D01*
X20041098Y6744041D01*
X19948251Y6772958D01*
X19871338Y6817611D01*
X19813702Y6874460D01*
X19771606Y6938981D01*
X19741313Y7006649D01*
X19723019Y7076677D01*
X19716921Y7148280D01*
X19724530Y7214374D01*
X20019067Y7214374D01*
X20195318Y7214374D01*
X20237808Y7252142D01*
X20212629Y7298566D01*
X20144961Y7315089D01*
X20056048Y7284403D01*
X20019067Y7214374D01*
X19724530Y7214374D01*
X19730297Y7264469D01*
X19770426Y7365447D01*
X19837307Y7451212D01*
X19925345Y7516345D01*
X20028946Y7555425D01*
X20148108Y7568451D01*
X20256429Y7557086D01*
G37*
G36*
X21917314Y7553895D02*
G01*
X22027078Y7514946D01*
X22088058Y7449639D01*
X22053830Y7351284D01*
X21975147Y7291484D01*
X21888594Y7319810D01*
X21791026Y7348137D01*
X21732800Y7316663D01*
X21735161Y7302500D01*
X21742242Y7291484D01*
X21752471Y7282829D01*
X21767421Y7275747D01*
X21784732Y7270240D01*
X21805190Y7264732D01*
X21827221Y7260011D01*
X21852400Y7256077D01*
X21877579Y7252142D01*
X21963344Y7231685D01*
X22038881Y7195490D01*
X22100254Y7123101D01*
X22121499Y7009796D01*
X22107461Y6911788D01*
X22065350Y6835559D01*
X21995164Y6781109D01*
X21896903Y6748440D01*
X21770569Y6737550D01*
X21666509Y6748172D01*
X21558909Y6780039D01*
X21476881Y6827643D01*
X21449539Y6885476D01*
X21464095Y6941341D01*
X21507765Y7014517D01*
X21569138Y7045991D01*
X21678509Y7007436D01*
X21795747Y6968881D01*
X21855547Y6994059D01*
X21832729Y7021599D01*
X21754832Y7043630D01*
X21669853Y7064875D01*
X21585170Y7103135D01*
X21524682Y7158115D01*
X21488389Y7229816D01*
X21476291Y7318237D01*
X21497339Y7425050D01*
X21560483Y7503144D01*
X21625441Y7538552D01*
X21708059Y7559796D01*
X21808337Y7566878D01*
X21917314Y7553895D01*
G37*
G36*
X19371411Y7860106D02*
G01*
X19471602Y7828633D01*
X19553258Y7776177D01*
X19609911Y7695132D01*
X19572142Y7598351D01*
X19479295Y7522028D01*
X19373859Y7551141D01*
X19355762Y7566091D01*
X19333730Y7584188D01*
X19303044Y7595991D01*
X19251112Y7601499D01*
X19192886Y7581828D01*
X19167707Y7533830D01*
X19195247Y7482686D01*
X19257407Y7455147D01*
X19353401Y7435476D01*
X19454117Y7411084D01*
X19543226Y7370168D01*
X19612271Y7310368D01*
X19656531Y7224996D01*
X19671284Y7107364D01*
X19664596Y7032221D01*
X19644531Y6964160D01*
X19576077Y6857936D01*
X19479295Y6787908D01*
X19371499Y6747779D01*
X19266849Y6735976D01*
X19178723Y6743058D01*
X19104760Y6760368D01*
X19044174Y6786334D01*
X18995390Y6816234D01*
X18957622Y6846921D01*
X18930082Y6874460D01*
X18912772Y6896491D01*
X18903330Y6907507D01*
X18863988Y7009796D01*
X18930082Y7110511D01*
X18995477Y7146881D01*
X19063670Y7136390D01*
X19134660Y7079038D01*
X19198394Y7021599D01*
X19260554Y7006649D01*
X19353401Y7029467D01*
X19381727Y7102643D01*
X19340812Y7151427D01*
X19217278Y7188408D01*
X19142332Y7208670D01*
X19082729Y7230111D01*
X18994603Y7280469D01*
X18931656Y7348137D01*
X18893888Y7433115D01*
X18881298Y7535404D01*
X18893013Y7626415D01*
X18928159Y7706410D01*
X18986735Y7775390D01*
X19063145Y7828283D01*
X19151796Y7860019D01*
X19252686Y7870597D01*
X19371411Y7860106D01*
G37*
%TD*%
M02*
